<?xml version="1.0" encoding="UTF-8"?>
<!DOCTYPE svg PUBLIC "-//W3C//DTD SVG 1.1//EN" "http://www.w3.org/Graphics/SVG/1.1/DTD/svg11.dtd">
<svg xmlns="http://www.w3.org/2000/svg" version="1.1" width="78px" height="29px" style="shape-rendering:geometricPrecision; text-rendering:geometricPrecision; image-rendering:optimizeQuality; fill-rule:evenodd; clip-rule:evenodd" xmlns:xlink="http://www.w3.org/1999/xlink">
<g><path style="opacity:1" fill="#000000" d="M 11.5,-0.5 C 12.8333,-0.5 14.1667,-0.5 15.5,-0.5C 17.1128,0.838136 17.6128,2.5048 17,4.5C 13.7829,7.38046 10.9495,10.5471 8.5,14C 10.5734,16.2828 11.9067,18.9494 12.5,22C 11.5877,24.2508 10.5877,26.4175 9.5,28.5C 8.83333,28.5 8.16667,28.5 7.5,28.5C 4.07598,25.2918 1.40931,21.6251 -0.5,17.5C -0.5,15.1667 -0.5,12.8333 -0.5,10.5C 2.61707,5.92946 6.61707,2.26279 11.5,-0.5 Z"/></g>
<g><path style="opacity:1" fill="#000000" d="M 77.5,15.5 C 77.5,16.1667 77.5,16.8333 77.5,17.5C 69.4644,26.7085 59.7977,28.8752 48.5,24C 53,20.8333 57.5,17.6667 62,14.5C 62.1626,12.6133 61.3293,11.1133 59.5,10C 52.8333,8.66667 52.8333,7.33333 59.5,6C 63.4525,5.08849 67.1191,5.75515 70.5,8C 73.0666,10.3959 75.4,12.8959 77.5,15.5 Z"/></g>
</svg>
