<?xml version="1.0" encoding="UTF-8"?>
<!DOCTYPE svg PUBLIC "-//W3C//DTD SVG 1.1//EN" "http://www.w3.org/Graphics/SVG/1.1/DTD/svg11.dtd">
<svg xmlns="http://www.w3.org/2000/svg" version="1.1" width="102px" height="168px" style="shape-rendering:geometricPrecision; text-rendering:geometricPrecision; image-rendering:optimizeQuality; fill-rule:evenodd; clip-rule:evenodd" xmlns:xlink="http://www.w3.org/1999/xlink">
<g><path style="opacity:1" fill="#000000" d="M 26.5,-0.5 C 31.1667,-0.5 35.8333,-0.5 40.5,-0.5C 44.1791,15.3803 49.0124,31.047 55,46.5C 60.3503,58.5305 65.6837,70.5305 71,82.5C 78.1636,111.827 87.9969,140.16 100.5,167.5C 99.1667,167.5 97.8333,167.5 96.5,167.5C 89.2351,162.191 81.5685,157.358 73.5,153C 53.6989,146.119 36.8656,134.953 23,119.5C 11.0076,95.6953 3.17425,70.6953 -0.5,44.5C -0.5,42.5 -0.5,40.5 -0.5,38.5C 1.4638,25.8012 6.79713,14.6346 15.5,5C 19.0167,2.6738 22.6834,0.840466 26.5,-0.5 Z M 54.5,65.5 C 51.8333,64.5 49.1667,63.5 46.5,62.5C 46.6512,68.9828 49.9845,71.9828 56.5,71.5C 58.5853,81.5908 61.5853,91.4241 65.5,101C 64.8993,102.605 63.8993,103.938 62.5,105C 58.9484,106.795 55.2817,108.295 51.5,109.5C 62.8058,114.972 71.3058,123.306 77,134.5C 78.6472,138.422 79.6472,142.422 80,146.5C 31.5465,124.998 9.21318,87.6645 13,34.5C 13.6547,27.8899 15.3214,21.5565 18,15.5C 22.5849,11.2659 27.9182,8.26595 34,6.5C 38.3557,27.0688 45.1891,46.7355 54.5,65.5 Z M 56.5,71.5 C 56.2787,67.2046 57.6121,66.5379 60.5,69.5C 59.6798,71.1112 58.3464,71.7778 56.5,71.5 Z"/></g>
<g><path style="opacity:1" fill="#000000" d="M 46.5,62.5 C 41.4475,73.3229 43.1141,83.1563 51.5,92C 49.7983,97.214 47.2983,97.714 44,93.5C 35.2701,82.7151 32.9367,70.7151 37,57.5C 38,56.5 39,55.5 40,54.5C 42.4145,57.014 44.5812,59.6806 46.5,62.5 Z"/></g>
<g><path style="opacity:1" fill="#000000" d="M 26.5,77.5 C 32.6051,82.3975 34.7717,88.7308 33,96.5C 27.3493,91.2306 25.1826,84.8973 26.5,77.5 Z"/></g>
<g><path style="opacity:1" fill="#000000" d="M 89.5,81.5 C 88.8333,80.1667 88.8333,80.1667 89.5,81.5 Z"/></g>
<g><path style="opacity:1" fill="#000000" d="M 89.5,81.5 C 90.8333,82.1667 90.8333,82.1667 89.5,81.5 Z"/></g>
</svg>
