<?xml version="1.0" encoding="UTF-8"?>
<!DOCTYPE svg PUBLIC "-//W3C//DTD SVG 1.1//EN" "http://www.w3.org/Graphics/SVG/1.1/DTD/svg11.dtd">
<svg xmlns="http://www.w3.org/2000/svg" version="1.1" width="139px" height="132px" style="shape-rendering:geometricPrecision; text-rendering:geometricPrecision; image-rendering:optimizeQuality; fill-rule:evenodd; clip-rule:evenodd" xmlns:xlink="http://www.w3.org/1999/xlink">
<g><path style="opacity:1" fill="#000000" d="M 89.5,-0.5 C 96.1667,-0.5 102.833,-0.5 109.5,-0.5C 109.571,4.14706 111.571,7.64706 115.5,10C 121.559,11.4746 127.559,11.9746 133.5,11.5C 130.279,13.6128 128.945,16.6128 129.5,20.5C 132.455,21.1587 135.455,21.4921 138.5,21.5C 138.5,21.8333 138.5,22.1667 138.5,22.5C 131.758,24.7412 128.258,29.4079 128,36.5C 88.4628,14.4465 53.1295,19.7798 22,52.5C 12.7133,65.6905 7.37994,80.3572 6,96.5C 3.51112,91.8627 1.34445,87.196 -0.5,82.5C -0.5,76.5 -0.5,70.5 -0.5,64.5C 17.1722,25.8359 47.1722,4.16926 89.5,-0.5 Z"/></g>
<g><path style="opacity:1" fill="#000000" d="M 74.5,31.5 C 99.266,29.7809 115.099,40.7809 122,64.5C 122.667,71.1667 122.667,77.8333 122,84.5C 119.661,97.1837 112.161,103.684 99.5,104C 120.913,78.6938 117.58,57.3605 89.5,40C 63.5441,35.6459 48.5441,46.4792 44.5,72.5C 47.3576,88.1943 55.0243,101.028 67.5,111C 54.4451,110.805 44.7785,104.972 38.5,93.5C 39.2978,81.156 40.4645,68.8226 42,56.5C 48.9896,42.9925 59.8229,34.6592 74.5,31.5 Z"/></g>
<g><path style="opacity:1" fill="#000000" d="M 68.5,52.5 C 70.636,54.8123 72.636,57.3123 74.5,60C 77.5,62 80.5,62 83.5,60C 85.3404,57.3313 87.3404,54.8313 89.5,52.5C 95.7225,58.8923 102.389,64.7256 109.5,70C 106.825,78.3393 102.158,85.3393 95.5,91C 94.6683,91.6877 94.0016,91.521 93.5,90.5C 88.4647,76.2411 80.4647,74.2411 69.5,84.5C 74.9726,88.9165 74.8059,92.9165 69,96.5C 55.2314,82.0507 55.0648,67.384 68.5,52.5 Z"/></g>
<g><path style="opacity:1" fill="#000000" d="M 71.5,131.5 C 66.1667,131.5 60.8333,131.5 55.5,131.5C 52.5,130.907 49.5,130.074 46.5,129C 61.997,126.556 76.997,122.389 91.5,116.5C 96.1668,116.661 100.167,118.328 103.5,121.5C 98.9778,124.517 93.9778,126.683 88.5,128C 82.7353,129.386 77.0686,130.552 71.5,131.5 Z"/></g>
</svg>
