<?xml version="1.0" encoding="UTF-8"?>
<!DOCTYPE svg PUBLIC "-//W3C//DTD SVG 1.1//EN" "http://www.w3.org/Graphics/SVG/1.1/DTD/svg11.dtd">
<svg xmlns="http://www.w3.org/2000/svg" version="1.1" width="171px" height="83px" style="shape-rendering:geometricPrecision; text-rendering:geometricPrecision; image-rendering:optimizeQuality; fill-rule:evenodd; clip-rule:evenodd" xmlns:xlink="http://www.w3.org/1999/xlink">
<g><path style="opacity:1" fill="#000000" d="M 110.5,-0.5 C 115.833,-0.5 121.167,-0.5 126.5,-0.5C 148.781,-1.02268 163.447,9.31065 170.5,30.5C 170.5,36.8333 170.5,43.1667 170.5,49.5C 169.814,55.3166 167.148,60.15 162.5,64C 146.097,78.1324 127.097,83.799 105.5,81C 120.09,74.8033 135.09,69.8033 150.5,66C 154.669,62.8373 157.669,58.8373 159.5,54C 147.043,31.1044 127.709,21.4377 101.5,25C 80.2006,27.3606 58.8673,29.3606 37.5,31C 15.6687,32.2797 8.00205,43.113 14.5,63.5C 6.28554,60.6216 1.28554,54.955 -0.5,46.5C -0.5,42.5 -0.5,38.5 -0.5,34.5C -0.34929,25.6895 2.98404,18.1895 9.5,12C 25.6507,7.85164 41.6507,7.85164 57.5,12C 48.9807,13.1395 40.6473,14.8062 32.5,17C 65.1377,24.1524 97.1377,22.1524 128.5,11C 123.486,7.99143 118.153,5.82476 112.5,4.5C 97.24,8.99731 81.9066,9.49731 66.5,6C 81.1501,2.69242 95.8168,0.525758 110.5,-0.5 Z"/></g>
<g><path style="opacity:1" fill="#000000" d="M 14.5,63.5 C 15.1667,63.5 15.5,63.8333 15.5,64.5C 15.1667,64.1667 14.8333,63.8333 14.5,63.5 Z"/></g>
<g><path style="opacity:1" fill="#000000" d="M 15.5,64.5 C 22.5347,64.0075 27.2014,67.0075 29.5,73.5C 22.4653,73.9925 17.7986,70.9925 15.5,64.5 Z"/></g>
<g><path style="opacity:1" fill="#000000" d="M 29.5,73.5 C 30.8333,74.1667 30.8333,74.1667 29.5,73.5 Z"/></g>
<g><path style="opacity:1" fill="#000000" d="M 57.5,82.5 C 52.5,82.5 47.5,82.5 42.5,82.5C 38.4846,80.6753 34.8179,78.1753 31.5,75C 40.6778,73.9688 49.3445,75.6355 57.5,80C 58.5981,80.7697 58.5981,81.603 57.5,82.5 Z"/></g>
</svg>
