<?xml version="1.0" encoding="UTF-8"?>
<!DOCTYPE svg PUBLIC "-//W3C//DTD SVG 1.1//EN" "http://www.w3.org/Graphics/SVG/1.1/DTD/svg11.dtd">
<svg xmlns="http://www.w3.org/2000/svg" version="1.1" width="435px" height="267px" style="shape-rendering:geometricPrecision; text-rendering:geometricPrecision; image-rendering:optimizeQuality; fill-rule:evenodd; clip-rule:evenodd" xmlns:xlink="http://www.w3.org/1999/xlink">
<g><path style="opacity:1" fill="#272727" d="M -0.5,-0.5 C 0.833333,-0.5 2.16667,-0.5 3.5,-0.5C 13.7938,65.604 39.2938,124.937 80,177.5C 115.63,220.074 160.463,248.074 214.5,261.5C 216.167,262.833 217.833,262.833 219.5,261.5C 288.746,243.303 341.913,203.636 379,142.5C 404.989,98.0351 422.156,50.3684 430.5,-0.5C 431.833,-0.5 433.167,-0.5 434.5,-0.5C 434.5,1.83333 434.5,4.16667 434.5,6.5C 423.371,69.0767 398.871,125.743 361,176.5C 324.333,221.654 277.833,251.654 221.5,266.5C 218.5,266.5 215.5,266.5 212.5,266.5C 139.119,246.06 83.6188,202.727 46,136.5C 23.6268,95.5419 8.12684,52.2085 -0.5,6.5C -0.5,4.16667 -0.5,1.83333 -0.5,-0.5 Z"/></g>
<g><path style="opacity:1" fill="#8b8b8b" d="M 219.5,261.5 C 217.833,262.833 216.167,262.833 214.5,261.5C 216.099,260.438 217.766,260.438 219.5,261.5 Z"/></g>
</svg>
