<?xml version="1.0" encoding="UTF-8"?>
<!DOCTYPE svg PUBLIC "-//W3C//DTD SVG 1.1//EN" "http://www.w3.org/Graphics/SVG/1.1/DTD/svg11.dtd">
<svg xmlns="http://www.w3.org/2000/svg" version="1.1" width="140px" height="125px" style="shape-rendering:geometricPrecision; text-rendering:geometricPrecision; image-rendering:optimizeQuality; fill-rule:evenodd; clip-rule:evenodd" xmlns:xlink="http://www.w3.org/1999/xlink">
<g><path style="opacity:1" fill="#000000" d="M 62.5,-0.5 C 69.1667,-0.5 75.8333,-0.5 82.5,-0.5C 109.261,5.7485 127.094,22.0818 136,48.5C 139.625,61.6429 139.292,74.6429 135,87.5C 134.664,77.1417 132.664,67.1417 129,57.5C 90.8692,30.8105 52.0359,29.8105 12.5,54.5C 4.87721,83.7553 14.8772,104.589 42.5,117C 27.9666,120.317 17.4666,115.151 11,101.5C 5.24266,91.3854 1.40933,80.7187 -0.5,69.5C -0.5,64.1667 -0.5,58.8333 -0.5,53.5C 1.63754,39.9339 6.63754,27.4339 14.5,16C 18.179,12.9104 22.3456,10.7437 27,9.5C 48.6374,14.9681 70.4708,15.8014 92.5,12C 79.2972,6.7595 65.6306,3.42617 51.5,2C 55.3474,1.36663 59.014,0.533292 62.5,-0.5 Z"/></g>
<g><path style="opacity:1" fill="#000000" d="M 132.5,90.5 C 133.833,91.1667 133.833,91.1667 132.5,90.5 Z"/></g>
<g><path style="opacity:1" fill="#000000" d="M 132.5,91.5 C 122.7,117.572 104.033,127.739 76.5,122C 98.5588,117.808 117.225,107.642 132.5,91.5 Z"/></g>
</svg>
