<?xml version="1.0" encoding="UTF-8"?>
<!DOCTYPE svg PUBLIC "-//W3C//DTD SVG 1.1//EN" "http://www.w3.org/Graphics/SVG/1.1/DTD/svg11.dtd">
<svg xmlns="http://www.w3.org/2000/svg" version="1.1" width="159px" height="121px" style="shape-rendering:geometricPrecision; text-rendering:geometricPrecision; image-rendering:optimizeQuality; fill-rule:evenodd; clip-rule:evenodd" xmlns:xlink="http://www.w3.org/1999/xlink">
<g><path style="opacity:1" fill="#000000" d="M 84.5,-0.5 C 92.1667,-0.5 99.8333,-0.5 107.5,-0.5C 131.068,4.45151 148.068,17.7848 158.5,39.5C 158.5,40.5 158.5,41.5 158.5,42.5C 154.497,44.3658 150.497,44.5325 146.5,43C 142.167,39.3333 137.833,35.6667 133.5,32C 122.122,25.0864 120.955,26.2531 130,35.5C 138.876,51.9727 139.876,68.9727 133,86.5C 131.5,89.3333 129.333,91.5 126.5,93C 120.363,95.4539 114.029,96.4539 107.5,96C 119.216,90.3647 125.216,81.1981 125.5,68.5C 117.639,64.7571 111.306,66.4238 106.5,73.5C 107.684,59.6731 101.351,51.6731 87.5,49.5C 84.6398,50.1798 82.1398,51.5131 80,53.5C 79.7181,61.9016 78.8848,70.2349 77.5,78.5C 74.1908,77.7579 71.3575,76.0912 69,73.5C 67.0655,70.6293 65.3988,67.6293 64,64.5C 55.6311,75.2446 56.7977,84.7446 67.5,93C 73.3808,94.6071 78.7141,97.2737 83.5,101C 75.2327,99.883 67.2327,97.5497 59.5,94C 49.9447,85.8788 45.9447,75.5455 47.5,63C 47.4805,48.0437 52.4805,35.0437 62.5,24C 38.1912,26.461 22.8578,39.6277 16.5,63.5C 10.0799,58.0837 4.41323,52.0837 -0.5,45.5C -0.5,43.1667 -0.5,40.8333 -0.5,38.5C 3.53942,37.0576 7.03942,34.7242 10,31.5C 10.6347,29.3646 10.3014,27.3646 9,25.5C 7.36508,24.2744 5.86508,22.941 4.5,21.5C 30.5869,11.6475 57.2536,4.31421 84.5,-0.5 Z M 86.5,24.5 C 90.3438,25.6691 93.3438,28.0024 95.5,31.5C 91.1354,32.7017 86.8021,32.5351 82.5,31C 84.7337,29.3621 86.067,27.1955 86.5,24.5 Z"/></g>
<g><path style="opacity:1" fill="#000000" d="M 106.5,73.5 C 106.631,74.2389 106.464,74.9056 106,75.5C 105.308,74.5632 105.475,73.8966 106.5,73.5 Z"/></g>
<g><path style="opacity:1" fill="#000000" d="M 104.5,76.5 C 105.833,77.1667 105.833,77.1667 104.5,76.5 Z"/></g>
<g><path style="opacity:1" fill="#000000" d="M 34.5,95.5 C 34.56,94.9569 34.8933,94.6236 35.5,94.5C 49.8333,101.667 64.1667,108.833 78.5,116C 60.105,116.967 45.4384,110.134 34.5,95.5 Z"/></g>
<g><path style="opacity:1" fill="#000000" d="M 103.5,120.5 C 98.5,120.5 93.5,120.5 88.5,120.5C 87.3915,119.71 86.0581,119.21 84.5,119C 90.9228,115.857 97.2561,112.524 103.5,109C 110.514,108.059 117.181,109.059 123.5,112C 117.27,116.124 110.603,118.957 103.5,120.5 Z"/></g>
</svg>
