<?xml version="1.0" encoding="UTF-8"?>
<!DOCTYPE svg PUBLIC "-//W3C//DTD SVG 1.1//EN" "http://www.w3.org/Graphics/SVG/1.1/DTD/svg11.dtd">
<svg xmlns="http://www.w3.org/2000/svg" version="1.1" width="804px" height="799px" style="shape-rendering:geometricPrecision; text-rendering:geometricPrecision; image-rendering:optimizeQuality; fill-rule:evenodd; clip-rule:evenodd" xmlns:xlink="http://www.w3.org/1999/xlink">
<g><path style="opacity:0.99" fill="#000000" d="M 420.5,-0.5 C 428.833,-0.5 437.167,-0.5 445.5,-0.5C 508.217,7.69581 564.217,31.5291 613.5,71C 664.866,116.252 698.366,172.086 714,238.5C 744.842,351.87 773.176,465.87 799,580.5C 800.84,589.924 802.34,599.258 803.5,608.5C 803.5,615.5 803.5,622.5 803.5,629.5C 800.52,648.901 796.687,668.234 792,687.5C 787.513,698.478 780.346,707.144 770.5,713.5C 769.182,710.045 768.182,706.545 767.5,703C 769.52,692.683 770.02,682.183 769,671.5C 767.986,647.682 765.653,624.015 762,600.5C 750.966,626.592 738.966,652.259 726,677.5C 724.369,682.015 723.036,686.682 722,691.5C 720.444,692.52 719.278,693.853 718.5,695.5C 712.625,718.529 700.791,737.862 683,753.5C 684.229,743.797 685.562,734.13 687,724.5C 669.817,748.51 646.317,760.51 616.5,760.5C 613.002,760.002 609.668,759.002 606.5,757.5C 613.093,750.397 620.26,743.064 628,735.5C 643.688,713.121 657.021,689.454 668,664.5C 669.44,656.495 669.94,648.495 669.5,640.5C 668.838,618.668 668.171,597.168 667.5,576C 668.6,570.769 669.267,565.435 669.5,560C 667.661,545.282 665.827,530.782 664,516.5C 663.333,515.833 662.667,515.167 662,514.5C 652.7,529.805 641.867,543.972 629.5,557C 623.026,559.474 618.526,563.974 616,570.5C 601.12,588.512 582.62,593.679 560.5,586C 582.682,563.984 599.348,538.318 610.5,509C 610.064,498.619 606.897,489.119 601,480.5C 598.079,476.908 594.579,474.075 590.5,472C 580.777,461.614 571.111,451.281 561.5,441C 555.499,439.665 550.499,436.665 546.5,432C 540.087,427.932 533.421,424.265 526.5,421C 522.833,416 518.5,411.667 513.5,408C 507.494,407.164 501.494,406.331 495.5,405.5C 492.136,405.893 488.803,406.06 485.5,406C 488.661,404.587 491.661,402.92 494.5,401C 485,384.833 472.167,372 456,362.5C 456.649,358.894 457.483,355.227 458.5,351.5C 457.474,347.116 455.641,343.116 453,339.5C 449.542,362.882 449.875,386.216 454,409.5C 456.583,412.997 458.916,416.664 461,420.5C 466.819,425.408 472.819,430.075 479,434.5C 479.896,437.025 479.396,439.192 477.5,441C 460.013,442.152 443.013,439.818 426.5,434C 413.058,427.552 399.391,421.552 385.5,416C 383.507,413.253 381.007,411.086 378,409.5C 376.08,412.339 374.413,415.339 373,418.5C 369.815,412.623 366.815,406.623 364,400.5C 362.118,397.377 359.785,394.711 357,392.5C 355.478,395.082 354.644,397.915 354.5,401C 355.475,410.2 356.308,419.367 357,428.5C 336.023,399.21 320.356,367.21 310,332.5C 308.807,330.395 307.14,328.728 305,327.5C 304.61,313.666 300.61,300.999 293,289.5C 288.63,298.639 285.964,308.306 285,318.5C 277.995,322.838 274.328,329.171 274,337.5C 264.686,349.445 256.352,362.112 249,375.5C 233.019,399.107 215.353,421.44 196,442.5C 194.328,448.021 192.494,453.521 190.5,459C 191.894,459.956 192.561,461.289 192.5,463C 191.326,466.318 191.326,469.652 192.5,473C 190.876,480.328 188.709,487.495 186,494.5C 183.432,506.042 182.432,517.708 183,529.5C 184.028,532.509 184.695,535.509 185,538.5C 183,541.167 181,541.167 179,538.5C 176.63,532.814 173.63,527.481 170,522.5C 169.86,519.957 169.194,517.623 168,515.5C 165.274,518.286 163.607,521.619 163,525.5C 163.174,540.644 161.841,555.644 159,570.5C 158.333,604.5 158.333,638.5 159,672.5C 163.969,693.978 167.969,715.645 171,737.5C 173.606,747.607 177.273,757.274 182,766.5C 188.034,773.555 195.367,778.555 204,781.5C 208.43,787.573 208.263,793.24 203.5,798.5C 202.5,798.5 201.5,798.5 200.5,798.5C 177.512,782.334 151.846,773.167 123.5,771C 103.999,760.508 87.1661,746.674 73,729.5C 56.9821,697.46 44.3154,664.127 35,629.5C 23.8573,659.436 23.6906,689.436 34.5,719.5C 29.4645,720.498 25.2978,719.165 22,715.5C 20.8935,711.196 19.8935,706.863 19,702.5C 7.77757,684.665 1.27757,665.332 -0.5,644.5C -0.5,644.167 -0.5,643.833 -0.5,643.5C 5.58091,597.171 16.4142,551.837 32,507.5C 37.3396,493.49 42.6729,479.49 48,465.5C 52.2643,435.535 56.2643,405.535 60,375.5C 74.1311,297.772 99.7977,224.105 137,154.5C 161.5,116.667 192.667,85.5 230.5,61C 244.923,53.2879 259.923,46.9546 275.5,42C 318.017,29.2723 360.35,15.9389 402.5,2C 408.647,1.16247 414.647,0.329141 420.5,-0.5 Z M 610.5,483.5 C 622.605,484.397 623.438,487.73 613,493.5C 609.999,490.672 609.166,487.338 610.5,483.5 Z"/></g>
<g><path style="opacity:1" fill="#fefefe" d="M 195.5,425.5 C 197.705,384.897 203.872,344.897 214,305.5C 214.781,300.695 214.281,296.028 212.5,291.5C 209.024,303.402 205.858,315.402 203,327.5C 200.933,321.058 199.599,314.391 199,307.5C 191.907,359.952 187.24,412.619 185,465.5C 181.872,481.06 179.205,496.727 177,512.5C 175.919,508.188 173.586,504.855 170,502.5C 168.021,496.326 166.688,489.993 166,483.5C 162.745,455.868 161.412,428.201 162,400.5C 156.596,416.713 151.596,433.046 147,449.5C 137,462.167 125.667,473.5 113,483.5C 111.779,482.226 110.946,480.726 110.5,479C 141.625,435.62 157.125,387.12 157,333.5C 151.915,373.875 138.582,411.208 117,445.5C 119.32,434.545 121.82,423.545 124.5,412.5C 124.333,411.833 124.167,411.167 124,410.5C 120.493,415.51 117.493,420.843 115,426.5C 109.666,445.887 103.666,465.22 97,484.5C 90.0231,489.47 84.5231,495.636 80.5,503C 80.354,505.188 81.354,506.521 83.5,507C 90.5526,507.55 97.5526,507.55 104.5,507C 98.3808,514.353 95.2142,522.853 95,532.5C 92.1524,533.257 89.819,532.257 88,529.5C 90.3437,539.969 88.0104,549.302 81,557.5C 80.151,586.867 80.8177,616.201 83,645.5C 101.419,689.172 122.586,731.338 146.5,772C 81.973,734.827 46.6397,678.66 40.5,603.5C 42.6999,577.138 44.8666,550.804 47,524.5C 27.0705,565.885 16.0705,609.551 14,655.5C 11.9138,593.1 26.2471,534.766 57,480.5C 63.8303,446.845 72.9969,413.845 84.5,381.5C 84.1543,380.304 83.6543,380.304 83,381.5C 76.3209,390.851 70.6542,400.851 66,411.5C 74.1573,325.027 98.4906,243.36 139,166.5C 173.088,114.079 218.588,74.9124 275.5,49C 319.536,40.2413 362.536,27.908 404.5,12C 438.214,8.80939 471.547,11.1427 504.5,19C 534.561,30.6971 563.228,45.0305 590.5,62C 636.425,101.58 672.925,148.413 700,202.5C 703.252,208.836 705.585,215.503 707,222.5C 707.792,224.587 708.959,226.421 710.5,228C 719.224,274.833 727.39,321.999 735,369.5C 738.38,402.776 741.047,436.109 743,469.5C 744.333,470.833 745.667,472.167 747,473.5C 748.832,467.672 751.332,462.172 754.5,457C 749.844,449.444 749.011,441.61 752,433.5C 752.615,431.884 753.615,430.551 755,429.5C 771.195,488.141 784.195,547.475 794,607.5C 795.086,624.914 794.419,642.247 792,659.5C 788.104,667.749 785.771,676.416 785,685.5C 781.835,691.834 778.169,697.834 774,703.5C 773.907,700.993 773.074,698.826 771.5,697C 774.397,687.579 777.064,678.079 779.5,668.5C 777.07,657.3 775.737,645.966 775.5,634.5C 776.196,621.741 777.363,609.074 779,596.5C 752.926,536.875 734.926,474.875 725,410.5C 726.59,435.461 727.924,460.461 729,485.5C 729.698,520.863 729.365,556.196 728,591.5C 732.453,577.358 735.787,563.024 738,548.5C 739.173,559.22 740.673,569.887 742.5,580.5C 744.268,565.82 746.101,551.153 748,536.5C 755.449,569.494 752.116,601.494 738,632.5C 736.815,627.096 735.315,621.762 733.5,616.5C 732.132,615.406 730.965,615.74 730,617.5C 727.774,623.575 725.941,629.741 724.5,636C 729.331,647.206 728.165,657.706 721,667.5C 720.755,663.178 719.588,659.178 717.5,655.5C 702.882,706.617 670.382,740.617 620,757.5C 619.333,756.5 619.333,755.5 620,754.5C 649.002,725.314 667.835,690.814 676.5,651C 689.788,608.426 691.955,565.259 683,521.5C 680.859,551.462 679.192,581.462 678,611.5C 677.667,611.167 677.333,610.833 677,610.5C 675.546,571.844 675.212,533.177 676,494.5C 703.726,447.593 715.726,396.927 712,342.5C 704.667,406.84 683.667,466.173 649,520.5C 634.234,541.103 615.401,556.77 592.5,567.5C 591.479,566.998 591.312,566.332 592,565.5C 611.649,539.203 625.649,510.203 634,478.5C 632.692,474.24 631.192,470.074 629.5,466C 644.117,423.68 649.95,380.18 647,335.5C 644.116,368.136 639.283,400.469 632.5,432.5C 631.068,429.338 630.401,426.005 630.5,422.5C 630.737,416.554 632.07,410.888 634.5,405.5C 627.894,380.075 622.394,354.408 618,328.5C 618.019,375.923 620.186,423.257 624.5,470.5C 625.663,476.173 623.329,479.006 617.5,479C 615.167,479.667 612.833,479.667 610.5,479C 575.034,409.966 544.2,338.799 518,265.5C 518.016,289.276 521.849,312.443 529.5,335C 528.831,336.847 527.497,338.014 525.5,338.5C 511.379,283.016 495.545,228.016 478,173.5C 491.506,240.525 508.006,306.859 527.5,372.5C 529.187,366.74 531.02,361.073 533,355.5C 538.399,374.529 543.899,393.529 549.5,412.5C 549.392,413.442 549.059,414.275 548.5,415C 546.782,415.346 545.115,415.846 543.5,416.5C 538.91,415.039 534.244,413.873 529.5,413C 517.033,402.202 504.867,391.035 493,379.5C 482.244,358.975 469.744,339.642 455.5,321.5C 457.051,319.116 458.385,316.616 459.5,314C 459.387,312.72 458.72,311.887 457.5,311.5C 453.463,314.292 451.63,312.958 452,307.5C 448.402,265.713 443.735,224.047 438,182.5C 439.217,235.487 439.551,288.487 439,341.5C 430.402,323.445 426.069,304.445 426,284.5C 429.242,280.36 430.242,275.694 429,270.5C 426.381,254.498 424.047,238.498 422,222.5C 420.667,229.167 419.333,235.833 418,242.5C 416.826,201.758 412.159,161.424 404,121.5C 407.48,189.894 412.147,258.227 418,326.5C 421.539,344.527 425.205,362.527 429,380.5C 430,382.5 431,384.5 432,386.5C 434.91,389.287 437.577,392.287 440,395.5C 441.022,403.305 442.356,410.972 444,418.5C 439.667,415.5 435.333,412.5 431,409.5C 430.347,413.875 431.513,417.708 434.5,421C 438.31,421.415 441.977,421.082 445.5,420C 450.494,423.994 455.16,428.327 459.5,433C 459,433.5 458.5,434 458,434.5C 455.257,435.014 452.257,434.347 449,432.5C 448.667,432.833 448.333,433.167 448,433.5C 433.479,428.992 419.312,423.492 405.5,417C 377.077,396.245 353.911,370.745 336,340.5C 339.121,357.685 341.121,375.019 342,392.5C 318.835,340.34 304.668,285.84 299.5,229C 304.603,214.203 306.103,199.036 304,183.5C 301.655,181.486 299.655,179.153 298,176.5C 290.774,197.859 287.441,219.859 288,242.5C 289.233,239.266 291.233,236.599 294,234.5C 289.395,272.484 278.229,308.484 260.5,342.5C 259.609,343.59 258.609,343.59 257.5,342.5C 256.104,341.148 255.437,339.481 255.5,337.5C 261.486,324.521 266.653,311.187 271,297.5C 273.966,288.01 275.633,278.343 276,268.5C 262.667,301.167 249.333,333.833 236,366.5C 235.943,373.978 234.943,381.311 233,388.5C 231.5,390 230,391.5 228.5,393C 220.248,391.08 218.748,393.246 224,399.5C 224.667,400.5 224.667,401.5 224,402.5C 216.102,412.239 206.602,419.906 195.5,425.5 Z M 610.5,483.5 C 609.166,487.338 609.999,490.672 613,493.5C 623.438,487.73 622.605,484.397 610.5,483.5 Z"/></g>
<g><path style="opacity:1" fill="#000000" d="M 557.5,54.5 C 566.395,60.2181 571.895,68.2181 574,78.5C 563.935,73.6076 558.435,65.6076 557.5,54.5 Z"/></g>
<g><path style="opacity:1" fill="#000000" d="M 522.5,60.5 C 528.325,59.7449 532.325,62.0782 534.5,67.5C 528.734,68.7939 524.067,66.9606 520.5,62C 521.416,61.7216 522.082,61.2216 522.5,60.5 Z"/></g>
<g><path style="opacity:1" fill="#000000" d="M 535.5,69.5 C 539.725,70.7217 542.725,73.3884 544.5,77.5C 538.501,78.5123 535.501,75.8457 535.5,69.5 Z"/></g>
<g><path style="opacity:1" fill="#000000" d="M 545.5,79.5 C 549.725,80.7217 552.725,83.3884 554.5,87.5C 548.501,88.5123 545.501,85.8457 545.5,79.5 Z"/></g>
<g><path style="opacity:1" fill="#000000" d="M 575.5,80.5 C 585.553,88.9414 591.72,99.6081 594,112.5C 584.481,103.797 578.314,93.1307 575.5,80.5 Z"/></g>
<g><path style="opacity:1" fill="#000000" d="M 559.5,94.5 C 593.819,130.154 612.652,172.821 616,222.5C 604.784,176.308 585.95,133.641 559.5,94.5 Z"/></g>
<g><path style="opacity:1" fill="#000000" d="M 450.5,95.5 C 457.624,101.321 459.79,108.655 457,117.5C 452.706,110.786 450.539,103.453 450.5,95.5 Z"/></g>
<g><path style="opacity:1" fill="#000000" d="M 595.5,115.5 C 604.107,124.386 608.607,135.052 609,147.5C 600.933,138.363 596.433,127.697 595.5,115.5 Z"/></g>
<g><path style="opacity:1" fill="#000000" d="M 311.5,116.5 C 313.614,137.678 311.78,158.678 306,179.5C 305.19,158.27 307.023,137.27 311.5,116.5 Z"/></g>
<g><path style="opacity:1" fill="#000000" d="M 467.5,135.5 C 471.381,144.026 473.548,153.026 474,162.5C 466.691,154.773 464.524,145.773 467.5,135.5 Z"/></g>
<g><path style="opacity:1" fill="#000000" d="M 611.5,154.5 C 631.762,205.918 640.262,259.251 637,314.5C 631.852,260.614 623.352,207.281 611.5,154.5 Z"/></g>
<g><path style="opacity:1" fill="#000000" d="M 216.5,205.5 C 218.24,218.388 216.073,230.722 210,242.5C 209.15,229.629 211.317,217.295 216.5,205.5 Z"/></g>
<g><path style="opacity:1" fill="#000000" d="M 689.5,239.5 C 704.025,290.274 707.691,341.941 700.5,394.5C 699.428,342.642 695.762,290.975 689.5,239.5 Z"/></g>
<g><path style="opacity:1" fill="#000000" d="M 208.5,246.5 C 209.205,263.209 206.538,279.543 200.5,295.5C 199.374,278.588 202.041,262.255 208.5,246.5 Z"/></g>
<g><path style="opacity:1" fill="#000000" d="M 655.5,283.5 C 666.105,320.718 667.271,358.385 659,396.5C 660.184,358.761 659.017,321.094 655.5,283.5 Z"/></g>
<g><path style="opacity:1" fill="#000000" d="M 354.5,303.5 C 362.273,312.204 364.773,322.204 362,333.5C 356.679,324.215 354.179,314.215 354.5,303.5 Z"/></g>
<g><path style="opacity:1" fill="#000000" d="M 110.5,307.5 C 108.196,331.839 100.363,354.505 87,375.5C 89.0817,363.241 92.4151,351.241 97,339.5C 101.237,328.697 105.737,318.03 110.5,307.5 Z"/></g>
<g><path style="opacity:1" fill="#000000" d="M 326.5,319.5 C 328.453,320.626 329.953,322.292 331,324.5C 333.134,329.374 334.467,334.374 335,339.5C 326.424,335.343 323.591,328.676 326.5,319.5 Z"/></g>
<g><path style="opacity:1" fill="#000000" d="M 382.5,339.5 C 384.371,339.859 385.871,340.859 387,342.5C 388.039,344.746 389.206,346.913 390.5,349C 387.855,352.954 384.688,353.454 381,350.5C 380.833,351.167 380.667,351.833 380.5,352.5C 382.485,361.618 385.318,370.285 389,378.5C 378.386,371.451 371.886,361.618 369.5,349C 372.276,344.974 375.61,344.474 379.5,347.5C 380.253,344.706 381.253,342.04 382.5,339.5 Z"/></g>
<g><path style="opacity:1" fill="#000000" d="M 136.5,370.5 C 138.233,384.155 134.733,396.489 126,407.5C 127.353,394.602 130.853,382.268 136.5,370.5 Z"/></g>
<g><path style="opacity:1" fill="#fefffe" d="M 550.5,375.5 C 559.317,382.781 562.483,392.115 560,403.5C 553.767,395.244 550.6,385.911 550.5,375.5 Z"/></g>
<g><path style="opacity:1" fill="#000000" d="M 403.5,376.5 C 408.792,377.615 412.458,380.781 414.5,386C 412.192,388.816 409.192,389.983 405.5,389.5C 405.874,392.972 404.874,395.972 402.5,398.5C 394.896,394.276 391.23,387.943 391.5,379.5C 394.167,380.833 396.833,382.167 399.5,383.5C 400.588,380.986 401.922,378.652 403.5,376.5 Z"/></g>
<g><path style="opacity:1" fill="#000000" d="M 417.5,394.5 C 422.377,398.211 426.377,402.711 429.5,408C 419.356,408.856 415.356,404.356 417.5,394.5 Z"/></g>
<g><path style="opacity:1" fill="#fefffe" d="M 562.5,409.5 C 570.068,413.701 573.735,420.034 573.5,428.5C 563.878,425.588 560.212,419.254 562.5,409.5 Z"/></g>
<g><path style="opacity:1" fill="#fefefe" d="M 151.5,459.5 C 154.084,476.163 158.418,492.497 164.5,508.5C 159.46,519.992 156.294,531.992 155,544.5C 152.692,570.022 150.859,595.522 149.5,621C 150.32,630.423 150.82,639.923 151,649.5C 151.681,661.154 153.181,672.654 155.5,684C 154.288,714.27 160.622,742.936 174.5,770C 158.9,765.086 146.734,755.586 138,741.5C 135.06,735.954 132.394,730.287 130,724.5C 118.604,671.068 116.937,617.401 125,563.5C 115.259,599.036 107.759,635.036 102.5,671.5C 96.1037,644.866 93.9371,617.866 96,590.5C 97.9175,570.329 100.917,550.329 105,530.5C 113.004,501.801 128.504,478.134 151.5,459.5 Z"/></g>
<g><path style="opacity:1" fill="#000000" d="M 710.5,471.5 C 714.428,476.418 716.928,482.084 718,488.5C 718.962,496.333 718.629,504 717,511.5C 714.507,498.209 712.34,484.876 710.5,471.5 Z"/></g>
</svg>
