<?xml version="1.0" encoding="UTF-8"?>
<!DOCTYPE svg PUBLIC "-//W3C//DTD SVG 1.1//EN" "http://www.w3.org/Graphics/SVG/1.1/DTD/svg11.dtd">
<svg xmlns="http://www.w3.org/2000/svg" version="1.1" width="859px" height="804px" style="shape-rendering:geometricPrecision; text-rendering:geometricPrecision; image-rendering:optimizeQuality; fill-rule:evenodd; clip-rule:evenodd" xmlns:xlink="http://www.w3.org/1999/xlink">
<g><path style="opacity:1" fill="#000000" d="M 481.5,-0.5 C 494.833,-0.5 508.167,-0.5 521.5,-0.5C 588.946,6.79924 646.613,34.2992 694.5,82C 698.548,85.7162 702.882,89.0496 707.5,92C 717.341,102.175 726.841,112.675 736,123.5C 749.655,143.466 763.322,163.466 777,183.5C 802.061,230.732 816.727,281.066 821,334.5C 822.772,361.471 823.772,388.471 824,415.5C 835.186,468.952 845.186,522.619 854,576.5C 860.111,623.846 858.111,670.846 848,717.5C 840.437,738.978 828.604,757.645 812.5,773.5C 810.016,771.517 807.683,769.35 805.5,767C 811.628,765.439 815.961,761.772 818.5,756C 817.663,754.989 817.33,753.822 817.5,752.5C 814.039,753.111 811.372,751.944 809.5,749C 819.218,718.766 821.718,687.933 817,656.5C 814.553,664.061 811.553,671.394 808,678.5C 781.195,703.633 756.195,730.299 733,758.5C 730.644,767.923 727.978,777.256 725,786.5C 724.03,789.821 721.863,791.487 718.5,791.5C 716.232,779.284 714.898,766.95 714.5,754.5C 681.279,754.054 663.279,770.387 660.5,803.5C 659.833,803.5 659.167,803.5 658.5,803.5C 648.581,797.083 641.414,788.417 637,777.5C 628.459,753.227 628.459,728.894 637,704.5C 642.509,695.485 647.509,686.151 652,676.5C 654.65,665.232 656.984,653.899 659,642.5C 660.385,635.837 660.718,629.17 660,622.5C 663.819,615.025 666.819,607.358 669,599.5C 658.667,604.5 651,612.167 646,622.5C 633.635,633.035 621.802,644.035 610.5,655.5C 609.833,655.167 609.167,654.833 608.5,654.5C 615.801,635.886 626.134,619.22 639.5,604.5C 629.249,607.672 620.249,613.506 612.5,622C 609.929,622.901 607.596,624.234 605.5,626C 603.899,626.273 602.399,626.773 601,627.5C 606.176,601.336 619.009,579.502 639.5,562C 623.153,563 606.82,562.666 590.5,561C 616.199,546.14 634.532,524.973 645.5,497.5C 654.543,489.429 660.543,479.429 663.5,467.5C 660.911,461.983 658.578,456.316 656.5,450.5C 656.987,449.554 657.32,448.554 657.5,447.5C 654.844,438.544 652.344,429.544 650,420.5C 649.19,418.694 648.024,417.194 646.5,416C 648.641,410.85 647.307,406.85 642.5,404C 637.59,402.197 632.59,400.697 627.5,399.5C 621.972,400.198 617.972,403.031 615.5,408C 614.333,408.167 613.167,408.333 612,408.5C 604.168,407.187 596.335,407.187 588.5,408.5C 587.167,408.167 585.833,407.833 584.5,407.5C 583.284,403.688 580.784,401.354 577,400.5C 574.091,401.565 571.257,402.399 568.5,403C 563.66,400.081 558.994,396.914 554.5,393.5C 551.294,386.922 547.961,380.422 544.5,374C 532.595,369.646 520.928,364.812 509.5,359.5C 499.819,389.281 507.319,413.614 532,432.5C 532.483,433.448 532.649,434.448 532.5,435.5C 521.764,435.395 511.097,434.562 500.5,433C 486.294,425.806 473.794,416.306 463,404.5C 453.522,393.542 445.022,381.876 437.5,369.5C 436.402,371.632 435.402,373.798 434.5,376C 439.186,393.44 443.352,410.94 447,428.5C 435.953,424.222 424.786,420.389 413.5,417C 406.996,413.336 401.163,408.836 396,403.5C 395.667,403.833 395.333,404.167 395,404.5C 384.155,388.811 372.821,373.477 361,358.5C 355.737,342.593 352.737,326.259 352,309.5C 334.592,333.312 317.925,357.646 302,382.5C 300.138,390.898 297.138,398.898 293,406.5C 283.904,433.859 277.57,461.525 274,489.5C 273.46,492.361 272.46,495.028 271,497.5C 270.432,513.194 270.432,528.86 271,544.5C 270.632,545.91 269.799,546.91 268.5,547.5C 265.025,545.192 261.692,542.692 258.5,540C 255.726,534.287 252.56,528.787 249,523.5C 247.989,522.663 246.822,522.33 245.5,522.5C 245.666,528.509 245.499,534.509 245,540.5C 243.533,543.266 241.7,545.766 239.5,548C 235.454,548.324 232.621,546.491 231,542.5C 230.289,539.266 229.455,536.099 228.5,533C 228.957,532.586 229.291,532.086 229.5,531.5C 225.963,524.488 224.63,517.155 225.5,509.5C 223.179,502.18 219.345,495.846 214,490.5C 212.662,491.506 211.329,492.506 210,493.5C 205.835,507.334 200.502,520.667 194,533.5C 185.488,559.881 176.821,586.215 168,612.5C 166.333,639.676 164.5,666.842 162.5,694C 162.515,708.741 165.348,722.908 171,736.5C 176.004,742.336 181.171,748.003 186.5,753.5C 178.383,751.266 171.716,746.766 166.5,740C 162.719,737.775 158.719,736.109 154.5,735C 151.577,732.955 148.743,730.788 146,728.5C 144.876,731.442 144.542,734.442 145,737.5C 148.465,739.963 151.631,742.796 154.5,746C 136.655,748.322 124.322,741.156 117.5,724.5C 115.135,726.342 112.802,728.176 110.5,730C 113.575,737.726 114.075,745.559 112,753.5C 102.101,742.469 97.7674,729.469 99,714.5C 96.2801,709.67 93.9467,704.67 92,699.5C 88.9508,703.871 86.1175,708.371 83.5,713C 76.2781,718.737 68.2781,722.903 59.5,725.5C 56.274,731.262 51.274,734.262 44.5,734.5C 44.1924,735.308 43.6924,735.975 43,736.5C 41.9148,735.707 40.7481,735.04 39.5,734.5C 32.4515,738.268 25.1181,739.102 17.5,737C 16.1667,736.333 16.1667,735.667 17.5,735C 29.3569,728.462 40.0235,720.462 49.5,711C 42.5008,698.997 33.6674,688.497 23,679.5C 15.1278,664.383 9.96114,648.383 7.5,631.5C 3.52061,650.295 5.85395,668.295 14.5,685.5C 13.2151,687.659 11.5485,688.326 9.5,687.5C -1.85458,661.34 -2.35458,635.007 8,608.5C 21.4986,585.498 35.4986,562.832 50,540.5C 62.5734,523.256 75.9068,506.589 90,490.5C 93.4846,438.578 103.318,387.911 119.5,338.5C 113.726,336.682 108.393,337.515 103.5,341C 97.4049,349.099 90.5716,356.599 83,363.5C 62.6291,386.57 44.9624,411.57 30,438.5C 26.7053,449.377 24.0386,460.377 22,471.5C 21.0317,492.828 20.1983,514.162 19.5,535.5C 21.989,541.882 20.489,547.216 15,551.5C 12.5888,548.221 10.9221,544.555 10,540.5C -3.22894,477.645 8.27106,419.812 44.5,367C 41.5879,360.491 38.7545,353.991 36,347.5C 35.2327,343.406 35.566,339.406 37,335.5C 64.7768,281.263 99.4435,231.93 141,187.5C 166.903,160.261 194.07,134.428 222.5,110C 260.7,79.5514 302.7,55.218 348.5,37C 357.529,35.1276 366.529,33.1276 375.5,31C 380.223,29.8044 384.557,27.8044 388.5,25C 404.525,21.6585 419.858,16.3251 434.5,9C 450.064,4.58756 465.73,1.42089 481.5,-0.5 Z M 179.5,219.5 C 179.833,222.5 178.5,223.833 175.5,223.5C 175.167,220.5 176.5,219.167 179.5,219.5 Z M 174.5,224.5 C 174.833,227.5 173.5,228.833 170.5,228.5C 170.167,225.5 171.5,224.167 174.5,224.5 Z M 169.5,229.5 C 169.833,232.5 168.5,233.833 165.5,233.5C 165.167,230.5 166.5,229.167 169.5,229.5 Z M 158.5,269.5 C 159.638,272.304 159.805,275.304 159,278.5C 154.652,275.528 154.486,272.528 158.5,269.5 Z M 700.5,498.5 C 700.167,495.5 701.5,494.167 704.5,494.5C 704.833,497.5 703.5,498.833 700.5,498.5 Z M 699.5,499.5 C 699.833,502.5 698.5,503.833 695.5,503.5C 695.167,500.5 696.5,499.167 699.5,499.5 Z M 694.5,504.5 C 694.833,507.5 693.5,508.833 690.5,508.5C 690.167,505.5 691.5,504.167 694.5,504.5 Z"/></g>
<g><path style="opacity:1" fill="#fefefe" d="M 665.5,548.5 C 683.941,526.891 704.107,506.557 726,487.5C 730.608,478.96 734.608,470.293 738,461.5C 728.296,472.705 717.796,483.038 706.5,492.5C 741.275,442.752 756.775,387.418 753,326.5C 748.814,394.084 726.314,454.584 685.5,508C 687.134,508.494 688.801,508.66 690.5,508.5C 689.014,514.392 687.014,514.726 684.5,509.5C 668.258,522.577 651.591,535.077 634.5,547C 631.335,549.13 628.335,548.963 625.5,546.5C 642.922,518.651 661.089,491.318 680,464.5C 691.715,403.594 692.381,342.594 682,281.5C 677.577,262.657 670.911,244.657 662,227.5C 668.803,254.513 674.47,281.847 679,309.5C 683.319,335.004 684.985,360.671 684,386.5C 681.934,409.765 676.267,432.098 667,453.5C 654.201,398.64 637.535,344.973 617,292.5C 615.276,289.27 613.276,288.936 611,291.5C 612.695,300.02 613.862,308.686 614.5,317.5C 614.618,321.971 613.951,326.305 612.5,330.5C 605.577,286.804 593.077,244.804 575,204.5C 574.888,207.447 573.388,208.78 570.5,208.5C 586.305,257.357 596.805,307.357 602,358.5C 603.545,373.798 604.378,389.131 604.5,404.5C 599.205,404.541 594.205,403.375 589.5,401C 575.963,389.306 565.296,375.473 557.5,359.5C 556.29,363.376 553.957,366.376 550.5,368.5C 548.205,361.988 546.539,355.321 545.5,348.5C 548.875,346.41 550.041,343.41 549,339.5C 525.377,292.333 514.377,242.333 516,189.5C 515.587,192.232 514.92,194.899 514,197.5C 513.282,198.451 512.449,198.617 511.5,198C 509.574,193.04 508.407,187.874 508,182.5C 503.041,221.589 497.208,260.589 490.5,299.5C 493.026,304.893 494.693,310.56 495.5,316.5C 493.968,344.562 494.802,372.562 498,400.5C 500.469,411.614 505.635,421.114 513.5,429C 512.975,429.692 512.308,430.192 511.5,430.5C 508.772,429.855 506.105,429.021 503.5,428C 451.283,384.703 429.117,329.203 437,261.5C 429.014,295.401 424.014,329.734 422,364.5C 421.657,350.161 421.157,335.827 420.5,321.5C 421.277,300.774 422.444,280.107 424,259.5C 417.473,287.186 412.807,315.186 410,343.5C 405.5,345.333 402.333,348.5 400.5,353C 404.982,354.011 408.816,352.844 412,349.5C 411.814,369.092 416.481,387.425 426,404.5C 429.745,409.398 433.245,414.398 436.5,419.5C 430.989,416.523 425.323,413.69 419.5,411C 404.798,396.441 395.131,378.941 390.5,358.5C 388.833,358.5 387.167,358.5 385.5,358.5C 386.07,349.491 383.57,341.491 378,334.5C 376,345.167 374,355.833 372,366.5C 370.772,360.049 368.439,354.049 365,348.5C 354.13,277.853 360.964,209.019 385.5,142C 384.523,139.398 383.356,136.898 382,134.5C 375.248,148.346 367.748,161.68 359.5,174.5C 363.153,175.786 364.82,178.453 364.5,182.5C 358.681,213.58 353.681,244.747 349.5,276C 356.922,283.384 355.922,289.217 346.5,293.5C 345.333,296.833 344.167,300.167 343,303.5C 339.982,298.735 336.649,298.402 333,302.5C 328.138,313.418 323.472,324.418 319,335.5C 317.894,338.726 316.061,341.393 313.5,343.5C 310.743,341.912 309.91,339.579 311,336.5C 319.631,313.273 327.464,289.773 334.5,266C 334.167,265.5 333.833,265 333.5,264.5C 330.906,265.592 328.739,267.259 327,269.5C 308.345,321.786 292.012,374.786 278,428.5C 270.333,465.176 266.499,502.176 266.5,539.5C 264.517,538.018 262.684,536.351 261,534.5C 258.755,529.003 255.755,524.003 252,519.5C 250.964,516.247 250.297,512.914 250,509.5C 249.804,507.714 248.971,506.381 247.5,505.5C 241.847,515.437 238.347,526.104 237,537.5C 230.133,509.086 228.8,480.419 233,451.5C 245.959,387.302 264.626,324.968 289,264.5C 286.579,265.961 284.079,267.294 281.5,268.5C 281.637,274.798 279.304,279.798 274.5,283.5C 252.11,338.384 235.61,395.05 225,453.5C 218.404,422.86 213.237,392.027 209.5,361C 212.678,339.99 214.178,318.823 214,297.5C 205.633,320.635 199.633,344.301 196,368.5C 199.207,366.295 201.207,363.295 202,359.5C 205.666,373.461 205.999,387.461 203,401.5C 188.71,441.036 175.21,480.87 162.5,521C 162.667,521.5 162.833,522 163,522.5C 180.795,487.785 195.461,451.785 207,414.5C 209.75,429.747 213.916,444.58 219.5,459C 212.141,477.408 204.974,495.908 198,514.5C 194.443,519.485 191.443,524.818 189,530.5C 181.108,557.732 172.441,584.732 163,611.5C 160.179,634.414 158.346,657.414 157.5,680.5C 157.713,696.933 159.046,713.267 161.5,729.5C 158.784,729.322 156.117,728.822 153.5,728C 147.371,721.038 142.704,713.204 139.5,704.5C 141.069,702.348 141.569,700.014 141,697.5C 137.758,695.356 135.758,692.356 135,688.5C 134.465,682.485 133.799,676.485 133,670.5C 131.989,669.663 130.822,669.33 129.5,669.5C 129.343,680.241 130.176,690.908 132,701.5C 137.003,710.164 139.003,719.497 138,729.5C 127.949,719.066 119.616,707.399 113,694.5C 111.275,700.013 110.275,705.68 110,711.5C 109,712.833 108,712.833 107,711.5C 106.595,705.159 106.095,698.826 105.5,692.5C 106.205,680.072 107.372,667.739 109,655.5C 96.7032,671.656 86.2032,688.989 77.5,707.5C 74.4035,708.795 71.5702,710.462 69,712.5C 67.1667,712 66,710.833 65.5,709C 97.3882,658.352 118.888,603.519 130,544.5C 144.961,498.992 156.294,452.658 164,405.5C 157.752,414.328 151.752,423.328 146,432.5C 145.265,430.129 144.432,427.795 143.5,425.5C 142.833,424.167 142.167,424.167 141.5,425.5C 128.731,446.106 114.231,465.44 98,483.5C 108.564,412.47 129.231,344.47 160,279.5C 161.892,277.946 163.392,276.112 164.5,274C 163.375,272.037 162.041,270.204 160.5,268.5C 163.707,262.517 165.207,256.183 165,249.5C 151.839,266.478 140.172,284.478 130,303.5C 91.7236,339.08 58.7236,378.747 31,422.5C 27.7175,423.911 25.8842,422.745 25.5,419C 32.2516,403.996 39.4183,389.163 47,374.5C 68.9481,344.218 91.2814,314.218 114,284.5C 115.579,282.959 117.413,281.792 119.5,281C 128.704,271.465 137.537,261.632 146,251.5C 152.07,244.926 158.57,238.926 165.5,233.5C 165.334,238.179 165.501,242.845 166,247.5C 173.924,239.736 180.091,230.736 184.5,220.5C 182.955,219.548 181.288,219.215 179.5,219.5C 180.76,214.211 183.593,213.211 188,216.5C 189.713,214.179 188.88,213.179 185.5,213.5C 185.548,210.365 187.215,208.698 190.5,208.5C 220.717,162.356 256.05,120.189 296.5,82C 301.578,79.4435 306.745,76.9435 312,74.5C 312.707,72.9194 313.54,71.4194 314.5,70C 311.447,69.8214 308.447,69.3214 305.5,68.5C 307.483,65.0086 310.483,63.3419 314.5,63.5C 314.5,65.1667 314.5,66.8333 314.5,68.5C 326.93,67.6744 327.263,66.1744 315.5,64C 325.941,55.9469 337.608,50.2802 350.5,47C 380.109,39.7496 409.443,31.7496 438.5,23C 451.475,21.0865 464.475,19.4198 477.5,18C 479.223,12.4529 477.223,8.78622 471.5,7C 479.035,4.85627 486.701,4.18961 494.5,5C 563.061,12.981 625.061,36.981 680.5,77C 683.464,80.9658 686.797,84.6325 690.5,88C 697.554,92.378 704.054,97.5447 710,103.5C 718.235,116.231 727.735,127.898 738.5,138.5C 740.587,141.673 742.421,145.006 744,148.5C 745.708,150.543 747.708,152.21 750,153.5C 800.428,238.215 823.261,325.715 818.5,416C 820.889,422.07 821.889,428.403 821.5,435C 820.467,493.624 808.301,549.791 785,603.5C 763.614,642.953 738.281,679.62 709,713.5C 693.606,729.225 678.606,745.225 664,761.5C 659.453,769.927 655.453,778.594 652,787.5C 648.4,780.243 644.4,773.243 640,766.5C 637.001,743.843 642.001,723.176 655,704.5C 657.174,714.938 658.674,714.605 659.5,703.5C 658.167,703.5 656.833,703.5 655.5,703.5C 663.493,670.355 673.993,638.022 687,606.5C 698.985,583.865 710.985,561.198 723,538.5C 732.736,518.269 741.069,497.602 748,476.5C 734.145,493.049 721.645,510.549 710.5,529C 716.893,537.646 715.226,544.146 705.5,548.5C 704.686,546.234 704.186,543.9 704,541.5C 702.771,539.053 701.271,538.887 699.5,541C 693.777,545.501 691.61,551.335 693,558.5C 705.783,545.639 707.45,546.639 698,561.5C 690.703,570.234 681.536,576.067 670.5,579C 670.167,582 668.5,583.667 665.5,584C 663.167,587 660.833,590 658.5,593C 657.552,593.483 656.552,593.649 655.5,593.5C 655.277,590.886 656.444,589.219 659,588.5C 659.49,587.207 659.657,585.873 659.5,584.5C 653.899,584.597 650.565,587.431 649.5,593C 644.611,594.443 639.945,596.443 635.5,599C 627.309,604.254 618.975,608.921 610.5,613C 626.449,589.544 644.782,568.044 665.5,548.5 Z M 158.5,269.5 C 154.486,272.528 154.652,275.528 159,278.5C 159.805,275.304 159.638,272.304 158.5,269.5 Z M 700.5,498.5 C 703.5,498.833 704.833,497.5 704.5,494.5C 701.5,494.167 700.167,495.5 700.5,498.5 Z M 699.5,499.5 C 699.833,502.5 698.5,503.833 695.5,503.5C 695.167,500.5 696.5,499.167 699.5,499.5 Z M 694.5,504.5 C 694.833,507.5 693.5,508.833 690.5,508.5C 690.167,505.5 691.5,504.167 694.5,504.5 Z"/></g>
<g><path style="opacity:1" fill="#fefffe" d="M 272.5,89.5 C 273.525,89.8966 273.692,90.5632 273,91.5C 251.55,114.964 227.716,135.464 201.5,153C 196.467,153.829 191.467,153.662 186.5,152.5C 210.615,125.126 239.282,104.126 272.5,89.5 Z"/></g>
<g><path style="opacity:1" fill="#000000" d="M 588.5,119.5 C 591.084,119.569 593.084,120.735 594.5,123C 591.534,123.895 588.867,123.395 586.5,121.5C 587.243,120.818 587.909,120.151 588.5,119.5 Z"/></g>
<g><path style="opacity:1" fill="#000000" d="M 595.5,124.5 C 603.964,128.117 608.464,134.45 609,143.5C 601.047,139.586 596.547,133.252 595.5,124.5 Z"/></g>
<g><path style="opacity:1" fill="#000000" d="M 510.5,141.5 C 512.446,143.734 513.613,146.401 514,149.5C 514.789,155.237 514.456,160.903 513,166.5C 511.806,164.377 511.14,162.043 511,159.5C 510.501,153.509 510.334,147.509 510.5,141.5 Z"/></g>
<g><path style="opacity:1" fill="#000000" d="M 610.5,144.5 C 617.851,146.539 620.518,151.206 618.5,158.5C 612.208,155.916 609.541,151.25 610.5,144.5 Z"/></g>
<g><path style="opacity:1" fill="#000000" d="M 303.5,149.5 C 303.457,158.189 299.29,164.523 291,168.5C 291.658,159.85 295.824,153.517 303.5,149.5 Z"/></g>
<g><path style="opacity:1" fill="#fefffe" d="M 206.5,159.5 C 207.947,160.134 208.613,161.301 208.5,163C 208.079,165.185 207.579,167.351 207,169.5C 184.445,198.893 160.945,227.56 136.5,255.5C 127.238,262.927 118.738,271.261 111,280.5C 110.667,281.833 110.333,283.167 110,284.5C 88.1607,307.664 67.8274,331.997 49,357.5C 48.2825,358.451 47.4491,358.617 46.5,358C 44.3857,354.324 43.0524,350.324 42.5,346C 44.1987,338.237 46.6987,330.737 50,323.5C 80.0194,264.807 122.186,216.64 176.5,179C 186.769,172.713 196.769,166.213 206.5,159.5 Z"/></g>
<g><path style="opacity:1" fill="#000000" d="M 620.5,159.5 C 627.895,163.951 631.395,170.617 631,179.5C 638.321,184.479 641.654,191.479 641,200.5C 644.649,204.779 646.315,209.779 646,215.5C 649.761,219.452 651.094,224.119 650,229.5C 645.826,224.647 643.826,218.98 644,212.5C 640.561,208.52 638.894,203.853 639,198.5C 631.679,193.521 628.346,186.521 629,177.5C 623.739,172.645 620.906,166.645 620.5,159.5 Z"/></g>
<g><path style="opacity:1" fill="#000000" d="M 520.5,164.5 C 524.688,166.385 525.355,169.052 522.5,172.5C 520.771,170.149 520.104,167.482 520.5,164.5 Z"/></g>
<g><path style="opacity:1" fill="#000000" d="M 326.5,165.5 C 330.511,168.098 330.344,170.764 326,173.5C 325.398,170.779 325.565,168.113 326.5,165.5 Z"/></g>
<g><path style="opacity:1" fill="#000000" d="M 283.5,174.5 C 285.042,181.075 282.542,185.742 276,188.5C 275.11,181.943 277.61,177.276 283.5,174.5 Z"/></g>
<g><path style="opacity:1" fill="#000000" d="M 359.5,174.5 C 359.975,181.223 357.142,185.89 351,188.5C 350.005,181.487 352.838,176.821 359.5,174.5 Z"/></g>
<g><path style="opacity:1" fill="#000000" d="M 318.5,179.5 C 319.478,179.811 320.145,180.478 320.5,181.5C 319.82,183.889 318.986,186.222 318,188.5C 314.714,185.31 314.88,182.31 318.5,179.5 Z"/></g>
<g><path style="opacity:1" fill="#000000" d="M 562.5,179.5 C 571.773,184.786 575.606,192.786 574,203.5C 572,204.167 570.667,205.5 570,207.5C 564.698,198.963 562.198,189.629 562.5,179.5 Z"/></g>
<g><path style="opacity:1" fill="#000000" d="M 273.5,189.5 C 275.229,193.063 274.396,196.063 271,198.5C 269.927,194.9 270.76,191.9 273.5,189.5 Z"/></g>
<g><path style="opacity:1" fill="#000000" d="M 347.5,191.5 C 341.631,208.2 332.798,223.533 321,237.5C 325.388,219.611 334.221,204.277 347.5,191.5 Z"/></g>
<g><path style="opacity:1" fill="#000000" d="M 268.5,199.5 C 270.229,203.063 269.396,206.063 266,208.5C 264.927,204.9 265.76,201.9 268.5,199.5 Z"/></g>
<g><path style="opacity:1" fill="#000000" d="M 243.5,200.5 C 243.642,212.595 239.476,223.261 231,232.5C 231.536,220.426 235.702,209.76 243.5,200.5 Z"/></g>
<g><path style="opacity:1" fill="#000000" d="M 303.5,205.5 C 304.695,205.866 305.361,206.699 305.5,208C 304.994,214.854 301.827,220.02 296,223.5C 296.059,216.492 298.559,210.492 303.5,205.5 Z"/></g>
<g><path style="opacity:1" fill="#000000" d="M 263.5,209.5 C 265.042,216.075 262.542,220.742 256,223.5C 255.11,216.943 257.61,212.276 263.5,209.5 Z"/></g>
<g><path style="opacity:1" fill="#000000" d="M 765.5,210.5 C 772.486,216.152 775.32,223.485 774,232.5C 767.552,226.598 764.719,219.265 765.5,210.5 Z"/></g>
<g><path style="opacity:1" fill="#000000" d="M 656.5,214.5 C 657.75,214.577 658.583,215.244 659,216.5C 660.039,218.901 660.206,221.234 659.5,223.5C 655.586,221.519 654.586,218.519 656.5,214.5 Z"/></g>
<g><path style="opacity:1" fill="#000000" d="M 311.5,215.5 C 315.511,218.098 315.344,220.764 311,223.5C 310.398,220.779 310.565,218.113 311.5,215.5 Z"/></g>
<g><path style="opacity:1" fill="#000000" d="M 179.5,219.5 C 181.288,219.215 182.955,219.548 184.5,220.5C 180.091,230.736 173.924,239.736 166,247.5C 165.501,242.845 165.334,238.179 165.5,233.5C 168.5,233.833 169.833,232.5 169.5,229.5C 170.167,229.5 170.5,229.167 170.5,228.5C 173.5,228.833 174.833,227.5 174.5,224.5C 175.167,224.5 175.5,224.167 175.5,223.5C 178.5,223.833 179.833,222.5 179.5,219.5 Z"/></g>
<g><path style="opacity:1" fill="#000000" d="M 253.5,224.5 C 254.478,224.811 255.145,225.478 255.5,226.5C 255.007,229.478 253.507,231.811 251,233.5C 250.308,232.975 249.808,232.308 249.5,231.5C 250.094,228.692 251.427,226.359 253.5,224.5 Z"/></g>
<g><path style="opacity:1" fill="#000000" d="M 293.5,224.5 C 295.229,228.063 294.396,231.063 291,233.5C 289.927,229.9 290.76,226.9 293.5,224.5 Z"/></g>
<g><path style="opacity:1" fill="#000000" d="M 442.5,230.5 C 445.453,236.366 444.953,242.033 441,247.5C 440.125,241.668 440.625,236.001 442.5,230.5 Z"/></g>
<g><path style="opacity:1" fill="#000000" d="M 650.5,230.5 C 654.838,233.859 655.504,237.859 652.5,242.5C 650.745,238.722 650.078,234.722 650.5,230.5 Z"/></g>
<g><path style="opacity:1" fill="#000000" d="M 229.5,233.5 C 231.014,239.486 229.514,244.819 225,249.5C 224.333,247.167 224.333,244.833 225,242.5C 225.999,239.168 227.499,236.168 229.5,233.5 Z"/></g>
<g><path style="opacity:1" fill="#000000" d="M 248.5,234.5 C 249.932,237.267 249.599,239.934 247.5,242.5C 246.447,241.562 245.78,240.395 245.5,239C 246.315,237.357 247.315,235.857 248.5,234.5 Z"/></g>
<g><path style="opacity:1" fill="#000000" d="M 289.5,248.5 C 287.833,248.5 286.167,248.5 284.5,248.5C 284.117,243.48 285.617,239.147 289,235.5C 289.499,239.821 289.666,244.154 289.5,248.5 Z"/></g>
<g><path style="opacity:1" fill="#000000" d="M 289.5,248.5 C 294.111,244.625 298.278,240.292 302,235.5C 301.867,245.889 298.201,254.889 291,262.5C 290.777,257.75 290.277,253.084 289.5,248.5 Z"/></g>
<g><path style="opacity:1" fill="#000000" d="M 426.5,235.5 C 427.497,235.47 428.164,235.97 428.5,237C 430.356,242.646 429.523,247.813 426,252.5C 425.009,251.57 424.509,250.404 424.5,249C 425.308,244.511 425.975,240.011 426.5,235.5 Z"/></g>
<g><path style="opacity:1" fill="#000000" d="M 775.5,237.5 C 803.408,308.52 798.908,377.52 762,444.5C 769.578,411.685 777.411,378.852 785.5,346C 780.935,309.953 777.602,273.787 775.5,237.5 Z"/></g>
<g><path style="opacity:1" fill="#000000" d="M 317.5,239.5 C 320.133,245.622 318.133,250.289 311.5,253.5C 310.194,247.442 312.194,242.776 317.5,239.5 Z"/></g>
<g><path style="opacity:1" fill="#000000" d="M 283.5,249.5 C 284.932,252.267 284.599,254.934 282.5,257.5C 281.447,256.562 280.78,255.395 280.5,254C 281.315,252.357 282.315,250.857 283.5,249.5 Z"/></g>
<g><path style="opacity:1" fill="#000000" d="M 655.5,249.5 C 659.688,251.385 660.355,254.052 657.5,257.5C 655.771,255.149 655.104,252.482 655.5,249.5 Z"/></g>
<g><path style="opacity:1" fill="#000000" d="M 223.5,250.5 C 224.478,250.811 225.145,251.478 225.5,252.5C 224.923,255.976 223.923,259.309 222.5,262.5C 219.757,258.278 220.09,254.278 223.5,250.5 Z"/></g>
<g><path style="opacity:1" fill="#000000" d="M 241.5,250.5 C 245.573,254.434 245.406,258.434 241,262.5C 240.393,258.463 240.56,254.463 241.5,250.5 Z"/></g>
<g><path style="opacity:1" fill="#000000" d="M 336.5,250.5 C 338.884,251.425 339.884,253.258 339.5,256C 339.269,258.909 338.103,261.409 336,263.5C 335.056,262.737 334.556,261.737 334.5,260.5C 335.297,257.18 335.964,253.846 336.5,250.5 Z"/></g>
<g><path style="opacity:1" fill="#000000" d="M 308.5,255.5 C 308.642,267.595 304.476,278.261 296,287.5C 296.536,275.426 300.702,264.76 308.5,255.5 Z"/></g>
<g><path style="opacity:1" fill="#000000" d="M 216.5,271.5 C 217.497,271.47 218.164,271.97 218.5,273C 220.302,279.845 219.469,286.345 216,292.5C 215.727,290.899 215.227,289.399 214.5,288C 215.434,282.575 216.101,277.075 216.5,271.5 Z"/></g>
<g><path style="opacity:1" fill="#000000" d="M 274.5,283.5 C 270.312,281.615 269.645,278.948 272.5,275.5C 273.086,275.709 273.586,276.043 274,276.5C 274.497,278.81 274.663,281.143 274.5,283.5 Z"/></g>
<g><path style="opacity:1" fill="#000000" d="M 230.5,279.5 C 234.688,281.385 235.355,284.052 232.5,287.5C 231.914,287.291 231.414,286.957 231,286.5C 230.503,284.19 230.337,281.857 230.5,279.5 Z"/></g>
<g><path style="opacity:1" fill="#fefffe" d="M 520.5,288.5 C 522.451,288.227 523.951,288.893 525,290.5C 525.658,300.61 523.825,300.944 519.5,291.5C 520.127,290.583 520.461,289.583 520.5,288.5 Z"/></g>
<g><path style="opacity:1" fill="#000000" d="M 293.5,289.5 C 295.229,293.063 294.396,296.063 291,298.5C 289.927,294.9 290.76,291.9 293.5,289.5 Z"/></g>
<g><path style="opacity:1" fill="#000000" d="M 225.5,294.5 C 229.887,298.205 230.554,302.539 227.5,307.5C 225.259,303.314 224.592,298.981 225.5,294.5 Z"/></g>
<g><path style="opacity:1" fill="#fefffe" d="M 525.5,299.5 C 529.447,303.262 530.947,307.929 530,313.5C 525.56,309.682 524.06,305.016 525.5,299.5 Z"/></g>
<g><path style="opacity:1" fill="#000000" d="M 288.5,300.5 C 289.513,308.34 287.68,315.673 283,322.5C 280.214,314.024 282.047,306.69 288.5,300.5 Z"/></g>
<g><path style="opacity:1" fill="#fefffe" d="M 530.5,314.5 C 534.447,318.262 535.947,322.929 535,328.5C 530.56,324.682 529.06,320.016 530.5,314.5 Z"/></g>
<g><path style="opacity:1" fill="#fefffe" d="M 515.5,320.5 C 525.728,331.204 531.061,343.871 531.5,358.5C 523.934,354.224 516.934,349.224 510.5,343.5C 513.774,336.193 515.441,328.527 515.5,320.5 Z"/></g>
<g><path style="opacity:1" fill="#000000" d="M 220.5,321.5 C 222.446,323.734 223.613,326.401 224,329.5C 224.789,335.237 224.456,340.903 223,346.5C 221.806,344.377 221.14,342.043 221,339.5C 220.501,333.509 220.334,327.509 220.5,321.5 Z"/></g>
<g><path style="opacity:1" fill="#fefffe" d="M 500.5,323.5 C 501.833,323.5 503.167,323.5 504.5,323.5C 503.137,336.789 501.804,336.789 500.5,323.5 Z"/></g>
<g><path style="opacity:1" fill="#fefffe" d="M 535.5,329.5 C 539.316,331.46 540.649,334.46 539.5,338.5C 535.804,336.377 534.471,333.377 535.5,329.5 Z"/></g>
<g><path style="opacity:1" fill="#fefffe" d="M 545.5,348.5 C 540.811,346.88 539.311,343.88 541,339.5C 544.089,341.677 545.589,344.677 545.5,348.5 Z"/></g>
<g><path style="opacity:1" fill="#fefffe" d="M 626.5,349.5 C 629.452,350.359 631.285,352.359 632,355.5C 635.458,366.294 637.958,377.294 639.5,388.5C 633.167,388.5 626.833,388.5 620.5,388.5C 620.467,375.147 622.467,362.147 626.5,349.5 Z"/></g>
<g><path style="opacity:1" fill="#000000" d="M 390.5,358.5 C 392.438,354.831 395.438,353.664 399.5,355C 397.281,358.045 394.281,359.211 390.5,358.5 Z"/></g>
<g><path style="opacity:1" fill="#000000" d="M 215.5,365.5 C 219.891,368.797 220.558,372.797 217.5,377.5C 215.745,373.722 215.078,369.722 215.5,365.5 Z"/></g>
<g><path style="opacity:1" fill="#000000" d="M 193.5,370.5 C 194.725,371.152 195.392,372.319 195.5,374C 195.269,379.134 193.602,383.634 190.5,387.5C 189.414,381.502 190.414,375.835 193.5,370.5 Z"/></g>
<g><path style="opacity:1" fill="#000000" d="M 171.5,375.5 C 175.493,379.371 175.326,383.371 171,387.5C 170.393,383.463 170.56,379.463 171.5,375.5 Z"/></g>
<g><path style="opacity:1" fill="#000000" d="M 189.5,388.5 C 191.364,396.064 189.864,403.064 185,409.5C 183.825,401.872 185.325,394.872 189.5,388.5 Z"/></g>
<g><path style="opacity:1" fill="#000000" d="M 168.5,390.5 C 169.649,390.791 170.316,391.624 170.5,393C 170.241,396.972 168.574,400.138 165.5,402.5C 164.43,398.034 165.43,394.034 168.5,390.5 Z"/></g>
<g><path style="opacity:1" fill="#000000" d="M 183.5,410.5 C 185.106,421.907 182.606,432.574 176,442.5C 175.308,437.109 175.641,431.775 177,426.5C 178.903,421.032 181.07,415.699 183.5,410.5 Z"/></g>
<g><path style="opacity:1" fill="#000000" d="M 173.5,445.5 C 174.695,445.866 175.361,446.699 175.5,448C 175.115,451.728 173.615,454.894 171,457.5C 169.572,453.187 170.405,449.187 173.5,445.5 Z"/></g>
<g><path style="opacity:1" fill="#000000" d="M 743.5,449.5 C 744.497,449.47 745.164,449.97 745.5,451C 744.895,454.609 743.062,457.443 740,459.5C 739.478,455.564 740.645,452.231 743.5,449.5 Z"/></g>
<g><path style="opacity:1" fill="#000000" d="M 760.5,464.5 C 756.933,466.557 753.766,469.223 751,472.5C 749.719,463.728 752.386,456.395 759,450.5C 759.223,455.25 759.723,459.916 760.5,464.5 Z"/></g>
<g><path style="opacity:1" fill="#000000" d="M 766.5,455.5 C 770.511,458.098 770.344,460.764 766,463.5C 765.398,460.779 765.565,458.113 766.5,455.5 Z"/></g>
<g><path style="opacity:1" fill="#000000" d="M 168.5,461.5 C 169.748,462.334 170.415,463.667 170.5,465.5C 170.335,471.345 168.669,476.679 165.5,481.5C 164.421,474.554 165.421,467.887 168.5,461.5 Z"/></g>
<g><path style="opacity:1" fill="#000000" d="M 760.5,464.5 C 763.261,463.915 764.927,464.915 765.5,467.5C 765.195,471.411 763.695,474.744 761,477.5C 760.501,473.179 760.334,468.846 760.5,464.5 Z"/></g>
<g><path style="opacity:1" fill="#000000" d="M 680.5,465.5 C 683.561,467.83 685.228,470.997 685.5,475C 685.37,476.059 684.87,476.892 684,477.5C 680.637,474.035 679.47,470.035 680.5,465.5 Z"/></g>
<g><path style="opacity:1" fill="#000000" d="M 472.5,470.5 C 473.525,470.897 473.692,471.563 473,472.5C 472.536,471.906 472.369,471.239 472.5,470.5 Z"/></g>
<g><path style="opacity:1" fill="#fefffe" d="M 123.5,471.5 C 119.106,483.848 114.606,496.181 110,508.5C 71.7671,565.547 53.1004,628.547 54,697.5C 40.7138,676.261 29.5471,653.928 20.5,630.5C 21.4603,622.836 21.627,615.169 21,607.5C 32.3725,581.742 46.0392,557.409 62,534.5C 83.0927,513.909 103.593,492.909 123.5,471.5 Z"/></g>
<g><path style="opacity:1" fill="#000000" d="M 758.5,480.5 C 759.586,480.62 760.253,481.287 760.5,482.5C 760.31,486.651 758.643,489.984 755.5,492.5C 754.603,488.087 755.603,484.087 758.5,480.5 Z"/></g>
<g><path style="opacity:1" fill="#000000" d="M 163.5,484.5 C 164.932,487.267 164.599,489.934 162.5,492.5C 161.447,491.562 160.78,490.395 160.5,489C 161.315,487.357 162.315,485.857 163.5,484.5 Z"/></g>
<g><path style="opacity:1" fill="#fefffe" d="M 760.5,668.5 C 774.32,640.86 788.153,613.193 802,585.5C 810.814,554.243 819.314,522.91 827.5,491.5C 830.708,504.997 834.541,518.33 839,531.5C 839.725,559.085 835.059,585.751 825,611.5C 814.01,641.167 798.677,668.167 779,692.5C 755.164,718.647 726.331,737.147 692.5,748C 690.5,748.667 688.5,748.667 686.5,748C 686.043,747.586 685.709,747.086 685.5,746.5C 711.277,721.06 736.277,695.06 760.5,668.5 Z"/></g>
<g><path style="opacity:1" fill="#000000" d="M 753.5,495.5 C 754.695,495.866 755.361,496.699 755.5,498C 755.115,501.728 753.615,504.894 751,507.5C 749.572,503.187 750.405,499.187 753.5,495.5 Z"/></g>
<g><path style="opacity:1" fill="#000000" d="M 155.5,499.5 C 159.688,501.385 160.355,504.052 157.5,507.5C 155.771,505.149 155.104,502.482 155.5,499.5 Z"/></g>
<g><path style="opacity:1" fill="#000000" d="M 748.5,510.5 C 749.649,510.791 750.316,511.624 750.5,513C 750.241,516.972 748.574,520.138 745.5,522.5C 744.43,518.034 745.43,514.034 748.5,510.5 Z"/></g>
<g><path style="opacity:1" fill="#000000" d="M 580.5,522.5 C 581.708,521.218 583.042,521.218 584.5,522.5C 583.443,522.906 582.109,522.906 580.5,522.5 Z"/></g>
<g><path style="opacity:1" fill="#000000" d="M 743.5,525.5 C 745.334,534.112 742.834,541.445 736,547.5C 734.82,538.878 737.32,531.545 743.5,525.5 Z"/></g>
<g><path style="opacity:1" fill="#000000" d="M 158.5,529.5 C 159.932,532.267 159.599,534.934 157.5,537.5C 156.447,536.562 155.78,535.395 155.5,534C 156.315,532.357 157.315,530.857 158.5,529.5 Z"/></g>
<g><path style="opacity:1" fill="#000000" d="M 665.5,548.5 C 668.88,548.179 669.713,549.179 668,551.5C 666.955,550.627 666.122,549.627 665.5,548.5 Z"/></g>
<g><path style="opacity:1" fill="#000000" d="M 729.5,559.5 C 729.19,554.787 731.023,551.12 735,548.5C 735.843,553.48 734.01,557.147 729.5,559.5 Z"/></g>
<g><path style="opacity:1" fill="#fefffe" d="M 118.5,550.5 C 110.485,603.687 91.3181,652.687 61,697.5C 58.4737,639.905 77.6403,590.905 118.5,550.5 Z"/></g>
<g><path style="opacity:1" fill="#000000" d="M 145.5,554.5 C 149.688,556.385 150.355,559.052 147.5,562.5C 145.771,560.149 145.104,557.482 145.5,554.5 Z"/></g>
<g><path style="opacity:1" fill="#000000" d="M 729.5,559.5 C 730.341,563.575 729.008,566.575 725.5,568.5C 724.659,564.425 725.992,561.425 729.5,559.5 Z"/></g>
<g><path style="opacity:1" fill="#000000" d="M 814.5,564.5 C 820.035,575.609 819.535,586.609 813,597.5C 811.121,586.417 811.621,575.417 814.5,564.5 Z"/></g>
<g><path style="opacity:1" fill="#000000" d="M 725.5,568.5 C 725.666,573.172 723.832,576.838 720,579.5C 719.262,574.547 721.095,570.881 725.5,568.5 Z"/></g>
<g><path style="opacity:1" fill="#000000" d="M 664.5,571.5 C 667.097,572.932 668.763,575.099 669.5,578C 667.167,579 665.5,580.667 664.5,583C 663.207,583.49 661.873,583.657 660.5,583.5C 660.914,579.172 662.247,575.172 664.5,571.5 Z"/></g>
<g><path style="opacity:1" fill="#000000" d="M 718.5,581.5 C 719.213,587.498 718.38,593.498 716,599.5C 713.058,605.588 709.558,611.254 705.5,616.5C 710.747,624.285 709.081,629.952 700.5,633.5C 691.583,645.331 684.75,658.331 680,672.5C 675.665,654.85 680.665,640.516 695,629.5C 700.462,612.244 708.295,596.244 718.5,581.5 Z"/></g>
<g><path style="opacity:1" fill="#fefffe" d="M 834.5,614.5 C 837.78,614.627 839.447,616.294 839.5,619.5C 836.806,637.189 833.973,654.855 831,672.5C 830.695,660.823 830.195,649.157 829.5,637.5C 829.776,629.501 831.443,621.834 834.5,614.5 Z"/></g>
<g><path style="opacity:1" fill="#fefffe" d="M 847.5,614.5 C 851.706,652.824 847.873,690.49 836,727.5C 832.552,735.614 827.552,742.614 821,748.5C 826.294,728.598 831.627,708.598 837,688.5C 842.303,664.075 845.803,639.408 847.5,614.5 Z"/></g>
<g><path style="opacity:1" fill="#000000" d="M 121.5,620.5 C 125.493,624.371 125.326,628.371 121,632.5C 120.393,628.463 120.56,624.463 121.5,620.5 Z"/></g>
<g><path style="opacity:1" fill="#000000" d="M 794.5,624.5 C 798.61,634.01 796.444,642.01 788,648.5C 787.409,639.771 789.575,631.771 794.5,624.5 Z"/></g>
<g><path style="opacity:1" fill="#000000" d="M 598.5,630.5 C 600.219,640.071 598.385,649.071 593,657.5C 589.68,647.425 591.513,638.425 598.5,630.5 Z"/></g>
<g><path style="opacity:1" fill="#000000" d="M 119.5,633.5 C 121.418,642.016 118.585,648.682 111,653.5C 111.341,645.813 114.175,639.146 119.5,633.5 Z"/></g>
<g><path style="opacity:1" fill="#000000" d="M 776.5,654.5 C 778.9,656.581 779.066,658.914 777,661.5C 775.087,663.187 772.92,663.687 770.5,663C 772.387,660.05 774.387,657.216 776.5,654.5 Z"/></g>
<g><path style="opacity:1" fill="#000000" d="M 760.5,668.5 C 763.508,667.58 766.341,666.246 769,664.5C 769.483,667.885 768.316,670.551 765.5,672.5C 763.214,671.867 761.548,670.534 760.5,668.5 Z"/></g>
<g><path style="opacity:1" fill="#000000" d="M 666.5,689.5 C 670.069,695.745 668.402,700.412 661.5,703.5C 660.297,697.889 661.963,693.222 666.5,689.5 Z"/></g>
<g><path style="opacity:1" fill="#000000" d="M 186.5,753.5 C 187.239,753.369 187.906,753.536 188.5,754C 187.563,754.692 186.897,754.525 186.5,753.5 Z"/></g>
</svg>
