<?xml version="1.0" encoding="UTF-8"?>
<!DOCTYPE svg PUBLIC "-//W3C//DTD SVG 1.1//EN" "http://www.w3.org/Graphics/SVG/1.1/DTD/svg11.dtd">
<svg xmlns="http://www.w3.org/2000/svg" version="1.1" width="124px" height="15px" style="shape-rendering:geometricPrecision; text-rendering:geometricPrecision; image-rendering:optimizeQuality; fill-rule:evenodd; clip-rule:evenodd" xmlns:xlink="http://www.w3.org/1999/xlink">
<g><path style="opacity:1" fill="#000000" d="M 93.5,-0.5 C 93.8333,-0.5 94.1667,-0.5 94.5,-0.5C 104.888,0.519886 114.554,3.85322 123.5,9.5C 123.5,9.83333 123.5,10.1667 123.5,10.5C 121.833,11.5 120.5,12.8333 119.5,14.5C 116.5,14.5 113.5,14.5 110.5,14.5C 98.3611,12.9883 86.0277,11.9883 73.5,11.5C 68.511,12.333 63.511,12.4996 58.5,12C 71.1553,10.284 82.8219,6.1173 93.5,-0.5 Z"/></g>
<g><path style="opacity:1" fill="#000000" d="M 22.5,14.5 C 18.5,14.5 14.5,14.5 10.5,14.5C 6.34015,12.5795 2.67349,9.91287 -0.5,6.5C -0.5,6.16667 -0.5,5.83333 -0.5,5.5C 11.1548,4.00288 22.1548,6.16955 32.5,12C 29.0477,12.8847 25.7144,13.718 22.5,14.5 Z"/></g>
</svg>
