<?xml version="1.0" encoding="UTF-8"?>
<!DOCTYPE svg PUBLIC "-//W3C//DTD SVG 1.1//EN" "http://www.w3.org/Graphics/SVG/1.1/DTD/svg11.dtd">
<svg xmlns="http://www.w3.org/2000/svg" version="1.1" width="144px" height="125px" style="shape-rendering:geometricPrecision; text-rendering:geometricPrecision; image-rendering:optimizeQuality; fill-rule:evenodd; clip-rule:evenodd" xmlns:xlink="http://www.w3.org/1999/xlink">
<g><path style="opacity:1" fill="#000000" d="M 74.5,-0.5 C 83.1667,-0.5 91.8333,-0.5 100.5,-0.5C 106.817,0.560769 113.15,2.06077 119.5,4C 127.368,12.0358 135.368,19.8691 143.5,27.5C 143.5,28.1667 143.5,28.8333 143.5,29.5C 140.774,32.3875 137.607,34.7209 134,36.5C 128.677,30.7543 122.177,27.5876 114.5,27C 135.78,53.1681 134.113,77.6681 109.5,100.5C 117.746,84.0223 120.246,66.689 117,48.5C 102.939,25.6091 84.1058,20.7757 60.5,34C 58.3333,35.5 56.1667,37 54,38.5C 36.6541,66.9698 42.8208,88.4698 72.5,103C 43.6384,102.122 31.4718,87.2883 36,58.5C 39.8364,43.655 48.003,31.8217 60.5,23C 39.5307,27.2928 24.3641,39.1261 15,58.5C 12.5195,65.7585 10.3528,73.0919 8.5,80.5C 7.18614,79.6872 6.01948,78.6872 5,77.5C 2.87132,74.2328 1.03798,70.8995 -0.5,67.5C -0.5,62.8333 -0.5,58.1667 -0.5,53.5C 16.1542,23.8373 41.1542,5.83726 74.5,-0.5 Z M 76.5,16.5 C 85.1117,15.7952 93.4451,16.9619 101.5,20C 89.8333,20.6667 78.1667,20.6667 66.5,20C 69.98,18.8974 73.3133,17.7308 76.5,16.5 Z M 104.5,22.5 C 108.063,20.7711 111.063,21.6044 113.5,25C 112.975,25.6924 112.308,26.1924 111.5,26.5C 108.692,25.9063 106.359,24.5729 104.5,22.5 Z"/></g>
<g><path style="opacity:1" fill="#000000" d="M 73.5,35.5 C 103.455,37.592 114.289,52.9254 106,81.5C 103.271,85.8976 99.6039,89.2309 95,91.5C 94.228,91.3552 93.5613,91.0219 93,90.5C 92.9832,85.91 92.8166,81.41 92.5,77C 87.3714,72.4581 81.3714,70.6248 74.5,71.5C 73.7428,77.4007 75.0761,82.734 78.5,87.5C 71.3197,89.9637 64.8197,88.6303 59,83.5C 51.8018,71.6996 52.1351,60.0329 60,48.5C 63.7356,43.2624 68.2356,38.929 73.5,35.5 Z"/></g>
<g><path style="opacity:1" fill="#000000" d="M 109.5,100.5 C 109.859,102.371 110.859,103.871 112.5,105C 114.5,106.333 116.5,107.667 118.5,109C 108.441,116.365 97.4412,121.532 85.5,124.5C 78.8333,124.5 72.1667,124.5 65.5,124.5C 56.441,122.306 47.7743,118.806 39.5,114C 47.6751,113.461 55.8417,113.628 64,114.5C 71.832,113.979 79.6653,113.479 87.5,113C 85.1667,111.833 82.8333,110.667 80.5,109.5C 79.1667,108.833 79.1667,108.167 80.5,107.5C 89.5903,102.811 99.2569,100.477 109.5,100.5 Z"/></g>
</svg>
