<?xml version="1.0" encoding="UTF-8"?>
<!DOCTYPE svg PUBLIC "-//W3C//DTD SVG 1.1//EN" "http://www.w3.org/Graphics/SVG/1.1/DTD/svg11.dtd">
<svg xmlns="http://www.w3.org/2000/svg" version="1.1" width="469px" height="456px" style="shape-rendering:geometricPrecision; text-rendering:geometricPrecision; image-rendering:optimizeQuality; fill-rule:evenodd; clip-rule:evenodd" xmlns:xlink="http://www.w3.org/1999/xlink">
<g><path style="opacity:0.811" fill="#121212" d="M 213.5,-0.5 C 227.167,-0.5 240.833,-0.5 254.5,-0.5C 264.258,-0.0181356 273.925,1.64853 283.5,4.5C 285.713,6.31173 288.047,6.64507 290.5,5.5C 292.786,5.59495 294.786,6.26162 296.5,7.5C 300.254,9.17719 304.254,10.8439 308.5,12.5C 309.183,12.1373 309.85,11.8039 310.5,11.5C 314.36,13.9117 318.693,15.5784 323.5,16.5C 324.492,16.3284 325.158,16.6618 325.5,17.5C 327.102,19.0739 329.102,19.7406 331.5,19.5C 333.153,19.6596 334.486,20.3263 335.5,21.5C 336.911,23.539 338.911,24.539 341.5,24.5C 342.492,24.3284 343.158,24.6618 343.5,25.5C 344.911,27.539 346.911,28.539 349.5,28.5C 352.494,30.9998 355.827,32.9998 359.5,34.5C 360.659,36.2503 362.326,37.2503 364.5,37.5C 366.296,39.9 368.63,41.5667 371.5,42.5C 373.147,44.3264 375.147,45.6597 377.5,46.5C 378.539,48.5311 380.205,49.8645 382.5,50.5C 383.167,50.5 383.5,50.8333 383.5,51.5C 384.585,53.5869 386.251,54.9202 388.5,55.5C 396.5,64.1667 404.833,72.5 413.5,80.5C 416.324,80.9893 417.657,82.656 417.5,85.5C 420.129,89.4627 423.129,93.1294 426.5,96.5C 427.794,97.2899 428.961,98.2899 430,99.5C 431.727,102.391 433.227,105.391 434.5,108.5C 438.343,116.859 442.676,124.859 447.5,132.5C 449.742,135.082 451.076,138.082 451.5,141.5C 451.826,144.311 452.659,146.978 454,149.5C 454.464,148.906 454.631,148.239 454.5,147.5C 455.537,148.93 456.204,150.597 456.5,152.5C 455.903,152.735 455.57,153.235 455.5,154C 456.333,156.5 457.167,159 458,161.5C 458.464,160.906 458.631,160.239 458.5,159.5C 460.199,163.954 461.533,168.62 462.5,173.5C 461.903,173.735 461.57,174.235 461.5,175C 462.93,179.911 463.93,184.911 464.5,190C 464.608,191.681 465.275,192.848 466.5,193.5C 467.065,195.952 467.732,198.285 468.5,200.5C 468.5,218.5 468.5,236.5 468.5,254.5C 466.549,261.598 465.216,268.931 464.5,276.5C 461.834,277.509 461.167,279.176 462.5,281.5C 461.626,284.789 460.959,288.123 460.5,291.5C 459.25,291.577 458.417,292.244 458,293.5C 456.097,300.293 453.931,306.959 451.5,313.5C 449.583,315.28 448.916,317.28 449.5,319.5C 446.829,322.175 445.162,325.508 444.5,329.5C 442.412,331.336 441.079,333.669 440.5,336.5C 440.672,337.492 440.338,338.158 439.5,338.5C 437.05,340.629 435.383,343.296 434.5,346.5C 432.75,347.659 431.75,349.326 431.5,351.5C 429.1,353.296 427.433,355.63 426.5,358.5C 425.026,359.436 424.026,360.77 423.5,362.5C 422.094,362.973 421.427,363.973 421.5,365.5C 419.413,366.585 418.08,368.251 417.5,370.5C 415.833,371.5 414.5,372.833 413.5,374.5C 411.937,375.945 410.604,377.611 409.5,379.5C 407.833,380.5 406.5,381.833 405.5,383.5C 405.5,384.167 405.167,384.5 404.5,384.5C 403.167,385.167 402.167,386.167 401.5,387.5C 401.5,388.167 401.167,388.5 400.5,388.5C 398.833,389.5 397.5,390.833 396.5,392.5C 392.895,394.472 389.895,397.139 387.5,400.5C 387.5,401.167 387.167,401.5 386.5,401.5C 384.596,401.738 383.262,402.738 382.5,404.5C 382.5,405.167 382.167,405.5 381.5,405.5C 377.293,407.435 373.627,410.102 370.5,413.5C 368.147,414.34 366.147,415.674 364.5,417.5C 359.233,420.11 354.233,423.11 349.5,426.5C 346.246,426.794 343.579,428.127 341.5,430.5C 338.246,430.794 335.579,432.127 333.5,434.5C 333.158,435.338 332.492,435.672 331.5,435.5C 328.351,435.415 325.684,436.415 323.5,438.5C 319.915,438.292 317.249,439.625 315.5,442.5C 312.933,443.475 310.267,444.142 307.5,444.5C 307.44,443.957 307.107,443.624 306.5,443.5C 304.787,443.879 303.787,444.879 303.5,446.5C 303.167,446.5 302.833,446.5 302.5,446.5C 301.377,445.243 300.711,445.576 300.5,447.5C 294.5,448.833 288.5,450.167 282.5,451.5C 280.372,450.371 278.039,450.204 275.5,451C 273.563,451.122 272.23,451.955 271.5,453.5C 268.311,453.858 265.311,454.525 262.5,455.5C 243.5,455.5 224.5,455.5 205.5,455.5C 202.689,454.525 199.689,453.858 196.5,453.5C 196.209,452.351 195.376,451.684 194,451.5C 189.11,450.768 184.277,449.768 179.5,448.5C 178.584,448.543 177.917,448.876 177.5,449.5C 163.156,446.506 149.489,441.839 136.5,435.5C 128.16,430.328 119.493,425.662 110.5,421.5C 102.39,415.933 94.3901,410.099 86.5,404C 85.5632,403.308 84.8966,403.475 84.5,404.5C 83.5,404.167 82.8333,403.5 82.5,402.5C 73.5751,392.908 64.2418,383.575 54.5,374.5C 50.8638,368.537 46.5305,363.204 41.5,358.5C 41.2503,356.326 40.2503,354.659 38.5,353.5C 35.736,352.052 34.0693,349.719 33.5,346.5C 31.3827,341.438 28.716,336.771 25.5,332.5C 25.2064,329.246 23.873,326.579 21.5,324.5C 20.0688,323.097 18.9022,321.431 18,319.5C 17.51,318.207 17.3433,316.873 17.5,315.5C 16.9034,310.983 15.2367,306.983 12.5,303.5C 12.5,303.167 12.5,302.833 12.5,302.5C 11.9347,298.463 10.6013,294.797 8.5,291.5C 5.93521,286.136 4.60187,280.469 4.5,274.5C 4.54289,271.133 4.20956,267.799 3.5,264.5C 3.36015,262.97 2.69348,261.97 1.5,261.5C 0.8795,256.398 0.212833,251.398 -0.5,246.5C -0.5,233.833 -0.5,221.167 -0.5,208.5C 0.586488,196.869 2.41982,185.202 5,173.5C 5.90032,170.282 7.06699,167.282 8.5,164.5C 10.411,160.767 11.7444,156.767 12.5,152.5C 12.5,152.167 12.5,151.833 12.5,151.5C 14.5848,149.316 15.5848,146.649 15.5,143.5C 16.5014,140.828 17.5014,138.162 18.5,135.5C 20.0481,135.179 20.7148,134.179 20.5,132.5C 20.3284,131.508 20.6618,130.842 21.5,130.5C 22.9313,129.22 23.5979,127.553 23.5,125.5C 24.9063,125.027 25.573,124.027 25.5,122.5C 26.6737,121.486 27.3404,120.153 27.5,118.5C 28.9063,118.027 29.573,117.027 29.5,115.5C 30.8897,114.101 31.8897,112.434 32.5,110.5C 32.3284,109.508 32.6618,108.842 33.5,108.5C 35.5475,106.45 37.2141,104.117 38.5,101.5C 40.2181,99.7772 41.5514,97.7772 42.5,95.5C 43.9063,95.0269 44.573,94.0269 44.5,92.5C 47.2003,90.7656 49.2003,88.4323 50.5,85.5C 52.5869,84.4154 53.9202,82.7488 54.5,80.5C 64.5266,70.8058 74.5266,61.1392 84.5,51.5C 86.7488,50.9202 88.4154,49.5869 89.5,47.5C 92.3702,46.5667 94.7036,44.9 96.5,42.5C 97.7079,39.9558 99.7079,38.6225 102.5,38.5C 105.198,38.1551 107.198,36.8218 108.5,34.5C 108.842,33.6618 109.508,33.3284 110.5,33.5C 113.331,32.9213 115.664,31.588 117.5,29.5C 124.315,26.9274 130.649,23.5941 136.5,19.5C 136.5,18.8333 136.833,18.5 137.5,18.5C 137.369,19.2389 137.536,19.9056 138,20.5C 139.652,19.6006 141.152,18.6006 142.5,17.5C 143.873,17.6567 145.207,17.49 146.5,17C 149.109,16.1363 150.775,14.9697 151.5,13.5C 156.779,10.8549 162.446,9.1882 168.5,8.5C 174.455,7.92651 180.122,6.59317 185.5,4.5C 189.22,4.43578 192.886,3.93578 196.5,3C 197.056,2.61742 197.389,2.11742 197.5,1.5C 202.969,0.925447 208.302,0.258781 213.5,-0.5 Z"/></g>
<g><path style="opacity:0.49" fill="#515151" d="M 197.5,1.5 C 197.389,2.11742 197.056,2.61742 196.5,3C 192.886,3.93578 189.22,4.43578 185.5,4.5C 189.264,3.00848 193.264,2.00848 197.5,1.5 Z"/></g>
<g><path style="opacity:1" fill="#fefffe" d="M 222.5,2.5 C 307.762,0.794346 375.595,33.7943 426,101.5C 468.886,168.054 476.22,238.387 448,312.5C 409.52,394.598 345.02,440.765 254.5,451C 174.45,456.202 107.95,429.036 55,369.5C 5.99137,307.496 -8.00863,238.162 13,161.5C 41.6469,81.8519 96.8136,31.0185 178.5,9C 193.145,5.64665 207.812,3.47998 222.5,2.5 Z"/></g>
<g><path style="opacity:0.541" fill="#656565" d="M 283.5,4.5 C 285.95,4.29803 288.283,4.63137 290.5,5.5C 288.047,6.64507 285.713,6.31173 283.5,4.5 Z"/></g>
<g><path style="opacity:0.863" fill="#4a4a4a" d="M 185.5,4.5 C 180.122,6.59317 174.455,7.92651 168.5,8.5C 173.734,5.77623 179.4,4.4429 185.5,4.5 Z"/></g>
<g><path style="opacity:0.776" fill="#4e4e4e" d="M 296.5,7.5 C 301.519,7.96238 306.186,9.29571 310.5,11.5C 309.85,11.8039 309.183,12.1373 308.5,12.5C 304.254,10.8439 300.254,9.17719 296.5,7.5 Z"/></g>
<g><path style="opacity:0.302" fill="#616161" d="M 310.5,11.5 C 315.29,12.204 319.624,13.8707 323.5,16.5C 318.693,15.5784 314.36,13.9117 310.5,11.5 Z"/></g>
<g><path style="opacity:0.694" fill="#4e4e4e" d="M 151.5,13.5 C 150.775,14.9697 149.109,16.1363 146.5,17C 145.207,17.49 143.873,17.6567 142.5,17.5C 145.088,15.3754 148.088,14.0421 151.5,13.5 Z"/></g>
<g><path style="opacity:0.314" fill="#8e8e8e" d="M 325.5,17.5 C 327.898,17.2594 329.898,17.9261 331.5,19.5C 329.102,19.7406 327.102,19.0739 325.5,17.5 Z"/></g>
<g><path style="opacity:0.427" fill="#5c5c5c" d="M 142.5,17.5 C 141.152,18.6006 139.652,19.6006 138,20.5C 137.536,19.9056 137.369,19.2389 137.5,18.5C 139.042,17.6993 140.708,17.366 142.5,17.5 Z"/></g>
<g><path style="opacity:0.49" fill="#787878" d="M 335.5,21.5 C 338.089,21.461 340.089,22.461 341.5,24.5C 338.911,24.539 336.911,23.539 335.5,21.5 Z"/></g>
<g><path style="opacity:0.71" fill="#585858" d="M 136.5,19.5 C 130.649,23.5941 124.315,26.9274 117.5,29.5C 117.953,28.5416 118.619,27.7083 119.5,27C 125.219,24.4708 130.885,21.9708 136.5,19.5 Z"/></g>
<g><path style="opacity:0.016" fill="#919191" d="M 343.5,25.5 C 346.089,25.461 348.089,26.461 349.5,28.5C 346.911,28.539 344.911,27.539 343.5,25.5 Z"/></g>
<g><path style="opacity:0.133" fill="#a0a0a0" d="M 349.5,28.5 C 353.505,29.4977 356.839,31.4977 359.5,34.5C 355.827,32.9998 352.494,30.9998 349.5,28.5 Z"/></g>
<g><path style="opacity:0.706" fill="#636363" d="M 117.5,29.5 C 115.664,31.588 113.331,32.9213 110.5,33.5C 112.052,30.8881 114.386,29.5548 117.5,29.5 Z"/></g>
<g><path style="opacity:0.22" fill="#626262" d="M 108.5,34.5 C 107.198,36.8218 105.198,38.1551 102.5,38.5C 103.802,36.1782 105.802,34.8449 108.5,34.5 Z"/></g>
<g><path style="opacity:0.282" fill="#989898" d="M 359.5,34.5 C 361.933,34.2729 363.599,35.2729 364.5,37.5C 362.326,37.2503 360.659,36.2503 359.5,34.5 Z"/></g>
<g><path style="opacity:0.059" fill="#959595" d="M 364.5,37.5 C 367.674,38.0102 370.008,39.6769 371.5,42.5C 368.63,41.5667 366.296,39.9 364.5,37.5 Z"/></g>
<g><path style="opacity:0.039" fill="#969696" d="M 371.5,42.5 C 374.292,42.6225 376.292,43.9558 377.5,46.5C 375.147,45.6597 373.147,44.3264 371.5,42.5 Z"/></g>
<g><path style="opacity:0.659" fill="#646464" d="M 96.5,42.5 C 94.7036,44.9 92.3702,46.5667 89.5,47.5C 91.2964,45.1 93.6298,43.4333 96.5,42.5 Z"/></g>
<g><path style="opacity:0.118" fill="#969696" d="M 377.5,46.5 C 379.749,47.0798 381.415,48.4131 382.5,50.5C 380.205,49.8645 378.539,48.5311 377.5,46.5 Z"/></g>
<g><path style="opacity:0.596" fill="#5c5c5c" d="M 89.5,47.5 C 88.4154,49.5869 86.7488,50.9202 84.5,51.5C 85.5846,49.4131 87.2512,48.0798 89.5,47.5 Z"/></g>
<g><path style="opacity:0.129" fill="#979797" d="M 383.5,51.5 C 385.749,52.0798 387.415,53.4131 388.5,55.5C 386.251,54.9202 384.585,53.5869 383.5,51.5 Z"/></g>
<g><path style="opacity:0.306" fill="#525252" d="M 388.5,55.5 C 390.932,56.7502 393.266,58.2502 395.5,60C 399.333,65.1667 403.833,69.6667 409,73.5C 410.75,75.7343 412.25,78.0676 413.5,80.5C 404.833,72.5 396.5,64.1667 388.5,55.5 Z"/></g>
<g><path style="opacity:0.808" fill="#575757" d="M 84.5,51.5 C 74.5266,61.1392 64.5266,70.8058 54.5,80.5C 61.5737,71.9216 69.2404,63.7549 77.5,56C 79.7343,54.2502 82.0676,52.7502 84.5,51.5 Z"/></g>
<g><path style="opacity:0.812" fill="#696969" d="M 54.5,80.5 C 53.9202,82.7488 52.5869,84.4154 50.5,85.5C 50.7313,82.9368 52.0646,81.2702 54.5,80.5 Z"/></g>
<g><path style="opacity:0.384" fill="#848484" d="M 50.5,85.5 C 49.2003,88.4323 47.2003,90.7656 44.5,92.5C 45.412,90.4048 46.5787,88.4048 48,86.5C 48.6708,85.7476 49.5041,85.4142 50.5,85.5 Z"/></g>
<g><path style="opacity:0.539" fill="#5f5f5f" d="M 417.5,85.5 C 419.017,85.5106 420.184,86.1772 421,87.5C 422.856,90.5557 424.689,93.5557 426.5,96.5C 423.129,93.1294 420.129,89.4627 417.5,85.5 Z"/></g>
<g><path style="opacity:0.345" fill="#a8a8a8" d="M 44.5,92.5 C 44.573,94.0269 43.9063,95.0269 42.5,95.5C 42.427,93.9731 43.0937,92.9731 44.5,92.5 Z"/></g>
<g><path style="opacity:0.306" fill="#9c9c9c" d="M 42.5,95.5 C 41.5514,97.7772 40.2181,99.7772 38.5,101.5C 38.6225,98.7079 39.9558,96.7079 42.5,95.5 Z"/></g>
<g><path style="opacity:0.122" fill="#8d8d8d" d="M 38.5,101.5 C 37.2141,104.117 35.5475,106.45 33.5,108.5C 34.0102,105.326 35.6769,102.992 38.5,101.5 Z"/></g>
<g><path style="opacity:0.329" fill="#959595" d="M 32.5,110.5 C 31.8897,112.434 30.8897,114.101 29.5,115.5C 29.2729,113.067 30.2729,111.401 32.5,110.5 Z"/></g>
<g><path style="opacity:0.063" fill="#585858" d="M 434.5,108.5 C 440.397,115.625 444.73,123.625 447.5,132.5C 442.676,124.859 438.343,116.859 434.5,108.5 Z"/></g>
<g><path style="opacity:0.31" fill="#989898" d="M 29.5,115.5 C 29.573,117.027 28.9063,118.027 27.5,118.5C 27.427,116.973 28.0937,115.973 29.5,115.5 Z"/></g>
<g><path style="opacity:0.365" fill="#b3b3b3" d="M 27.5,118.5 C 27.3404,120.153 26.6737,121.486 25.5,122.5C 25.2291,120.62 25.8958,119.287 27.5,118.5 Z"/></g>
<g><path style="opacity:0.518" fill="#a1a1a1" d="M 25.5,122.5 C 25.573,124.027 24.9063,125.027 23.5,125.5C 23.427,123.973 24.0937,122.973 25.5,122.5 Z"/></g>
<g><path style="opacity:0.133" fill="#9e9e9e" d="M 23.5,125.5 C 23.5979,127.553 22.9313,129.22 21.5,130.5C 21.4021,128.447 22.0687,126.78 23.5,125.5 Z"/></g>
<g><path style="opacity:0.741" fill="#808080" d="M 20.5,132.5 C 20.7148,134.179 20.0481,135.179 18.5,135.5C 18.9321,134.29 19.5987,133.29 20.5,132.5 Z"/></g>
<g><path style="opacity:0.218" fill="#676767" d="M 451.5,141.5 C 453.008,143.181 454.008,145.181 454.5,147.5C 454.631,148.239 454.464,148.906 454,149.5C 452.659,146.978 451.826,144.311 451.5,141.5 Z"/></g>
<g><path style="opacity:0.561" fill="#7a7a7a" d="M 15.5,143.5 C 15.5848,146.649 14.5848,149.316 12.5,151.5C 12.7329,148.458 13.7329,145.792 15.5,143.5 Z"/></g>
<g><path style="opacity:0.702" fill="#646464" d="M 12.5,152.5 C 11.7444,156.767 10.411,160.767 8.5,164.5C 8.73152,160.058 10.0648,156.058 12.5,152.5 Z"/></g>
<g><path style="opacity:0.408" fill="#6a6a6a" d="M 456.5,152.5 C 457.167,154.833 457.833,157.167 458.5,159.5C 458.631,160.239 458.464,160.906 458,161.5C 457.167,159 456.333,156.5 455.5,154C 455.57,153.235 455.903,152.735 456.5,152.5 Z"/></g>
<g><path style="opacity:0.816" fill="#4c4c4c" d="M 462.5,173.5 C 464.285,179.949 465.619,186.616 466.5,193.5C 465.275,192.848 464.608,191.681 464.5,190C 463.93,184.911 462.93,179.911 461.5,175C 461.57,174.235 461.903,173.735 462.5,173.5 Z"/></g>
<g><path style="opacity:0.482" fill="#4c4c4c" d="M 1.5,261.5 C 2.69348,261.97 3.36015,262.97 3.5,264.5C 4.20956,267.799 4.54289,271.133 4.5,274.5C 2.88157,270.425 1.88157,266.092 1.5,261.5 Z"/></g>
<g><path style="opacity:0.145" fill="#666666" d="M 464.5,276.5 C 463.976,278.306 463.309,279.972 462.5,281.5C 461.167,279.176 461.834,277.509 464.5,276.5 Z"/></g>
<g><path style="opacity:0.012" fill="#5e5e5e" d="M 8.5,291.5 C 10.6013,294.797 11.9347,298.463 12.5,302.5C 10,299.34 8.6667,295.673 8.5,291.5 Z"/></g>
<g><path style="opacity:0.137" fill="#757575" d="M 460.5,291.5 C 458.096,299.161 455.096,306.495 451.5,313.5C 453.931,306.959 456.097,300.293 458,293.5C 458.417,292.244 459.25,291.577 460.5,291.5 Z"/></g>
<g><path style="opacity:0.765" fill="#676767" d="M 12.5,303.5 C 15.2367,306.983 16.9034,310.983 17.5,315.5C 14.7633,312.017 13.0966,308.017 12.5,303.5 Z"/></g>
<g><path style="opacity:0.11" fill="#909090" d="M 451.5,313.5 C 451.741,315.898 451.074,317.898 449.5,319.5C 448.916,317.28 449.583,315.28 451.5,313.5 Z"/></g>
<g><path style="opacity:0.216" fill="#aaaaaa" d="M 449.5,319.5 C 448.58,323.294 446.913,326.627 444.5,329.5C 445.162,325.508 446.829,322.175 449.5,319.5 Z"/></g>
<g><path style="opacity:0.035" fill="#595959" d="M 21.5,324.5 C 23.873,326.579 25.2064,329.246 25.5,332.5C 23.127,330.421 21.7936,327.754 21.5,324.5 Z"/></g>
<g><path style="opacity:0.051" fill="#c5c5c5" d="M 444.5,329.5 C 443.921,332.331 442.588,334.664 440.5,336.5C 441.079,333.669 442.412,331.336 444.5,329.5 Z"/></g>
<g><path style="opacity:0.067" fill="#5a5a5a" d="M 25.5,332.5 C 28.716,336.771 31.3827,341.438 33.5,346.5C 29.8065,342.449 27.1398,337.783 25.5,332.5 Z"/></g>
<g><path style="opacity:0.055" fill="#c7c7c7" d="M 439.5,338.5 C 438.831,341.849 437.164,344.516 434.5,346.5C 435.383,343.296 437.05,340.629 439.5,338.5 Z"/></g>
<g><path style="opacity:0.325" fill="#b4b4b4" d="M 434.5,346.5 C 434.727,348.933 433.727,350.599 431.5,351.5C 431.75,349.326 432.75,347.659 434.5,346.5 Z"/></g>
<g><path style="opacity:0.384" fill="#5a5a5a" d="M 38.5,353.5 C 40.2503,354.659 41.2503,356.326 41.5,358.5C 39.2729,357.599 38.2729,355.933 38.5,353.5 Z"/></g>
<g><path style="opacity:0.106" fill="#c6c6c6" d="M 431.5,351.5 C 430.99,354.674 429.323,357.008 426.5,358.5C 427.433,355.63 429.1,353.296 431.5,351.5 Z"/></g>
<g><path style="opacity:0.088" fill="#e4e4e4" d="M 426.5,358.5 C 426.446,360.632 425.446,361.965 423.5,362.5C 424.026,360.77 425.026,359.436 426.5,358.5 Z"/></g>
<g><path style="opacity:0.043" fill="#dbdbdb" d="M 423.5,362.5 C 423.573,364.027 422.906,365.027 421.5,365.5C 421.427,363.973 422.094,362.973 423.5,362.5 Z"/></g>
<g><path style="opacity:0.639" fill="#555555" d="M 41.5,358.5 C 46.5305,363.204 50.8638,368.537 54.5,374.5C 49.2493,370.05 44.916,364.717 41.5,358.5 Z"/></g>
<g><path style="opacity:0.043" fill="#dedede" d="M 421.5,365.5 C 420.92,367.749 419.587,369.415 417.5,370.5C 418.08,368.251 419.413,366.585 421.5,365.5 Z"/></g>
<g><path style="opacity:0.166" fill="#e6e6e6" d="M 417.5,370.5 C 417.167,372.833 415.833,374.167 413.5,374.5C 414.5,372.833 415.833,371.5 417.5,370.5 Z"/></g>
<g><path style="opacity:0.008" fill="#e6e6e6" d="M 413.5,374.5 C 413.33,377.204 411.997,378.871 409.5,379.5C 410.604,377.611 411.937,375.945 413.5,374.5 Z"/></g>
<g><path style="opacity:0.039" fill="#bdbdbd" d="M 409.5,379.5 C 409.167,381.833 407.833,383.167 405.5,383.5C 406.5,381.833 407.833,380.5 409.5,379.5 Z"/></g>
<g><path style="opacity:0.898" fill="#4f4f4f" d="M 54.5,374.5 C 64.2418,383.575 73.5751,392.908 82.5,402.5C 75.0124,396.179 67.679,389.679 60.5,383C 58.2553,380.269 56.2553,377.436 54.5,374.5 Z"/></g>
<g><path style="opacity:0.265" fill="#7d7d7d" d="M 404.5,384.5 C 404.5,386.5 403.5,387.5 401.5,387.5C 402.167,386.167 403.167,385.167 404.5,384.5 Z"/></g>
<g><path style="opacity:0.047" fill="#909090" d="M 400.5,388.5 C 400.167,390.833 398.833,392.167 396.5,392.5C 397.5,390.833 398.833,389.5 400.5,388.5 Z"/></g>
<g><path style="opacity:0.059" fill="#cecece" d="M 396.5,392.5 C 396.489,394.017 395.823,395.184 394.5,396C 392.266,397.75 389.932,399.25 387.5,400.5C 389.895,397.139 392.895,394.472 396.5,392.5 Z"/></g>
<g><path style="opacity:0.051" fill="#b7b7b7" d="M 386.5,401.5 C 385.738,403.262 384.404,404.262 382.5,404.5C 383.262,402.738 384.596,401.738 386.5,401.5 Z"/></g>
<g><path style="opacity:0.11" fill="#5e5e5e" d="M 84.5,404.5 C 84.8966,403.475 85.5632,403.308 86.5,404C 94.3901,410.099 102.39,415.933 110.5,421.5C 101.224,416.855 92.5568,411.189 84.5,404.5 Z"/></g>
<g><path style="opacity:0.008" fill="#d3d3d3" d="M 381.5,405.5 C 379.621,408.115 377.288,410.281 374.5,412C 373.255,412.791 371.922,413.291 370.5,413.5C 373.627,410.102 377.293,407.435 381.5,405.5 Z"/></g>
<g><path style="opacity:0.251" fill="#c5c5c5" d="M 370.5,413.5 C 369.198,415.822 367.198,417.155 364.5,417.5C 366.147,415.674 368.147,414.34 370.5,413.5 Z"/></g>
<g><path style="opacity:0.1" fill="#b9b9b9" d="M 364.5,417.5 C 360.264,421.728 355.264,424.728 349.5,426.5C 354.233,423.11 359.233,420.11 364.5,417.5 Z"/></g>
<g><path style="opacity:0.235" fill="#a4a4a4" d="M 349.5,426.5 C 347.421,428.873 344.754,430.206 341.5,430.5C 343.579,428.127 346.246,426.794 349.5,426.5 Z"/></g>
<g><path style="opacity:0.443" fill="#565656" d="M 110.5,421.5 C 119.493,425.662 128.16,430.328 136.5,435.5C 126.933,432.385 118.266,427.718 110.5,421.5 Z"/></g>
<g><path style="opacity:0.141" fill="#a3a3a3" d="M 341.5,430.5 C 339.421,432.873 336.754,434.206 333.5,434.5C 335.579,432.127 338.246,430.794 341.5,430.5 Z"/></g>
<g><path style="opacity:0.255" fill="#929292" d="M 331.5,435.5 C 329.316,437.585 326.649,438.585 323.5,438.5C 325.684,436.415 328.351,435.415 331.5,435.5 Z"/></g>
<g><path style="opacity:0.573" fill="#7a7a7a" d="M 323.5,438.5 C 321.151,440.341 318.485,441.674 315.5,442.5C 317.249,439.625 319.915,438.292 323.5,438.5 Z"/></g>
<g><path style="opacity:0.298" fill="#626262" d="M 307.5,444.5 C 306.486,445.674 305.153,446.34 303.5,446.5C 303.787,444.879 304.787,443.879 306.5,443.5C 307.107,443.624 307.44,443.957 307.5,444.5 Z"/></g>
<g><path style="opacity:0.012" fill="#a0a0a0" d="M 302.5,446.5 C 302.158,447.338 301.492,447.672 300.5,447.5C 300.711,445.576 301.377,445.243 302.5,446.5 Z"/></g>
<g><path style="opacity:0.98" fill="#424242" d="M 177.5,449.5 C 177.917,448.876 178.584,448.543 179.5,448.5C 184.277,449.768 189.11,450.768 194,451.5C 195.376,451.684 196.209,452.351 196.5,453.5C 190.082,452.409 183.749,451.076 177.5,449.5 Z"/></g>
<g><path style="opacity:0.878" fill="#484848" d="M 282.5,451.5 C 278.803,452.008 275.136,452.674 271.5,453.5C 272.23,451.955 273.563,451.122 275.5,451C 278.039,450.204 280.372,450.371 282.5,451.5 Z"/></g>
</svg>
