<?xml version="1.0" encoding="UTF-8"?>
<!DOCTYPE svg PUBLIC "-//W3C//DTD SVG 1.1//EN" "http://www.w3.org/Graphics/SVG/1.1/DTD/svg11.dtd">
<svg xmlns="http://www.w3.org/2000/svg" version="1.1" width="306px" height="188px" style="shape-rendering:geometricPrecision; text-rendering:geometricPrecision; image-rendering:optimizeQuality; fill-rule:evenodd; clip-rule:evenodd" xmlns:xlink="http://www.w3.org/1999/xlink">
<g><path style="opacity:1" fill="#000000" d="M 262.5,-0.5 C 263.167,-0.5 263.833,-0.5 264.5,-0.5C 261.862,24.2056 258.696,48.8723 255,73.5C 252.605,119.697 269.439,157.03 305.5,185.5C 305.5,186.167 305.5,186.833 305.5,187.5C 304.833,187.5 304.167,187.5 303.5,187.5C 281.22,177.72 265.054,161.72 255,139.5C 246.736,96.724 245.403,53.724 251,10.5C 255.196,7.16329 259.029,3.49663 262.5,-0.5 Z"/></g>
<g><path style="opacity:0.991" fill="#000000" d="M -0.5,174.5 C -0.5,173.833 -0.5,173.167 -0.5,172.5C 28.2523,133.931 38.919,90.7647 31.5,43C 32.6313,30.8156 32.798,18.649 32,6.5C 35.3675,10.2026 39.0342,13.536 43,16.5C 46.4333,43.1133 46.7667,69.78 44,96.5C 38.5867,128.032 23.7534,154.032 -0.5,174.5 Z"/></g>
<g><path style="opacity:1" fill="#000000" d="M 281.5,35.5 C 282.833,36.1667 282.833,36.1667 281.5,35.5 Z"/></g>
</svg>
