<?xml version="1.0" encoding="UTF-8"?>
<!DOCTYPE svg PUBLIC "-//W3C//DTD SVG 1.1//EN" "http://www.w3.org/Graphics/SVG/1.1/DTD/svg11.dtd">
<svg xmlns="http://www.w3.org/2000/svg" version="1.1" width="26px" height="85px" style="shape-rendering:geometricPrecision; text-rendering:geometricPrecision; image-rendering:optimizeQuality; fill-rule:evenodd; clip-rule:evenodd" xmlns:xlink="http://www.w3.org/1999/xlink">
<g><path style="opacity:1" fill="#000000" d="M 9.5,84.5 C 9.16667,84.5 8.83333,84.5 8.5,84.5C 4.43084,72.9855 1.43084,61.3188 -0.5,49.5C -0.5,40.1667 -0.5,30.8333 -0.5,21.5C 1.06539,14.6675 2.39872,7.66748 3.5,0.5C 8.80882,-0.434542 12.3088,1.56546 14,6.5C 14.5117,20.703 13.0117,34.703 9.5,48.5C 14.7296,58.6283 19.7296,68.9616 24.5,79.5C 24.3333,79.8333 24.1667,80.1667 24,80.5C 17.1165,73.3329 12.2831,74.6662 9.5,84.5 Z"/></g>
<g><path style="opacity:1" fill="#000000" d="M 25.5,81.5 C 25.5,81.8333 25.5,82.1667 25.5,82.5C 24.8299,82.0187 24.8299,81.6853 25.5,81.5 Z"/></g>
</svg>
