<?xml version="1.0" encoding="UTF-8"?>
<!DOCTYPE svg PUBLIC "-//W3C//DTD SVG 1.1//EN" "http://www.w3.org/Graphics/SVG/1.1/DTD/svg11.dtd">
<svg xmlns="http://www.w3.org/2000/svg" version="1.1" width="134px" height="73px" style="shape-rendering:geometricPrecision; text-rendering:geometricPrecision; image-rendering:optimizeQuality; fill-rule:evenodd; clip-rule:evenodd" xmlns:xlink="http://www.w3.org/1999/xlink">
<g><path style="opacity:1" fill="#000000" d="M 63.5,-0.5 C 64.8333,-0.5 66.1667,-0.5 67.5,-0.5C 68.5981,0.396953 68.5981,1.23029 67.5,2C 63.593,5.06037 59.593,5.22704 55.5,2.5C 58.1836,1.24697 60.8503,0.246967 63.5,-0.5 Z"/></g>
<g><path style="opacity:1" fill="#000000" d="M 75.5,-0.5 C 81.5,-0.5 87.5,-0.5 93.5,-0.5C 115.538,4.53903 128.871,18.2057 133.5,40.5C 133.5,42.8333 133.5,45.1667 133.5,47.5C 129.886,57.2817 123.553,64.7817 114.5,70C 111.621,70.546 108.954,71.3794 106.5,72.5C 102.833,72.5 99.1667,72.5 95.5,72.5C 124.103,63.8837 131.103,46.3837 116.5,20C 103.578,11.5389 89.9111,4.70553 75.5,-0.5 Z"/></g>
<g><path style="opacity:1" fill="#000000" d="M -0.5,40.5 C -0.5,38.8333 -0.5,37.1667 -0.5,35.5C 3.48959,23.6583 10.1563,13.4916 19.5,5C 24.5506,4.34306 29.2172,5.34306 33.5,8C 0.397069,29.9556 1.7304,49.6223 37.5,67C 17.5423,68.5329 4.87562,59.6995 -0.5,40.5 Z"/></g>
</svg>
