<?xml version="1.0" encoding="UTF-8"?>
<!DOCTYPE svg PUBLIC "-//W3C//DTD SVG 1.1//EN" "http://www.w3.org/Graphics/SVG/1.1/DTD/svg11.dtd">
<svg xmlns="http://www.w3.org/2000/svg" version="1.1" width="104px" height="39px" style="shape-rendering:geometricPrecision; text-rendering:geometricPrecision; image-rendering:optimizeQuality; fill-rule:evenodd; clip-rule:evenodd" xmlns:xlink="http://www.w3.org/1999/xlink">
<g><path style="opacity:1" fill="#000000" d="M 15.5,-0.5 C 15.8333,-0.5 16.1667,-0.5 16.5,-0.5C 18.3651,5.64386 16.0317,8.64386 9.5,8.5C 10.7559,4.98373 12.7559,1.98373 15.5,-0.5 Z"/></g>
<g><path style="opacity:1" fill="#000000" d="M 103.5,15.5 C 103.5,18.5 103.5,21.5 103.5,24.5C 102.503,27.678 100.503,30.178 97.5,32C 91.6991,35.0971 85.6991,37.2637 79.5,38.5C 77.1667,38.5 74.8333,38.5 72.5,38.5C 70.7078,37.6909 68.7078,37.1909 66.5,37C 77.1349,35.433 85.9682,30.5997 93,22.5C 91.6297,11.7958 85.4631,5.62912 74.5,4C 83.2079,-1.18119 91.3745,-0.34786 99,6.5C 101.079,9.32402 102.579,12.324 103.5,15.5 Z"/></g>
<g><path style="opacity:1" fill="#000000" d="M 9.5,8.5 C 9.4981,13.3843 7.83143,17.5509 4.5,21C 11.4178,25.2882 17.7511,30.2882 23.5,36C 15.6497,35.2162 8.31639,32.7162 1.5,28.5C 1.00569,26.9745 0.339027,25.6412 -0.5,24.5C -0.5,22.5 -0.5,20.5 -0.5,18.5C 1.7805,14.2194 5.11383,10.8861 9.5,8.5 Z"/></g>
</svg>
